<svg width="24" height="24" viewBox="0 0 24 24" fill="none" xmlns="http://www.w3.org/2000/svg">
<path d="M18.75 12.7505L20.25 12.7505C20.6642 12.7505 21 12.4147 21 12.0005C21 11.5863 20.6642 11.2505 20.25 11.2505L18.75 11.2505C18.3358 11.2505 18 11.5863 18 12.0005C18 12.4147 18.3358 12.7505 18.75 12.7505Z" fill="#F2F2F0"/>
<path d="M12 6.00049C12 5.58627 12.3358 5.25049 12.75 5.25049L20.25 5.2505C20.6642 5.2505 21 5.58629 21 6.00051C21 6.41472 20.6642 6.7505 20.25 6.7505L12.75 6.75049C12.3358 6.75049 12 6.4147 12 6.00049Z" fill="#F2F2F0"/>
<path d="M12 18.0005C12 17.5863 12.3358 17.2505 12.75 17.2505L20.25 17.2505C20.6642 17.2505 21 17.5863 21 18.0005C21 18.4147 20.6642 18.7505 20.25 18.7505L12.75 18.7505C12.3358 18.7505 12 18.4147 12 18.0005Z" fill="#F2F2F0"/>
<path d="M3.75001 6.7505L5.25001 6.75049C5.66422 6.75048 6 6.41469 6 6.00048C6 5.58627 5.66421 5.25048 5.24999 5.25049L3.74999 5.2505C3.33578 5.25051 3 5.5863 3 6.00051C3 6.41472 3.33579 6.75051 3.75001 6.7505Z" fill="#F2F2F0"/>
<path d="M5.25001 18.7505L3.75001 18.7505C3.33579 18.7505 3 18.4147 3 18.0005C3 17.5863 3.33578 17.2505 3.74999 17.2505L5.24999 17.2505C5.66421 17.2505 6 17.5863 6 18.0005C6 18.4147 5.66422 18.7505 5.25001 18.7505Z" fill="#F2F2F0"/>
<path d="M3 12.0005C3 11.5863 3.33579 11.2505 3.75 11.2505H11.25C11.6642 11.2505 12 11.5863 12 12.0005C12 12.4147 11.6642 12.7505 11.25 12.7505H3.75C3.33579 12.7505 3 12.4147 3 12.0005Z" fill="#F2F2F0"/>
<path d="M9 3.75049C7.75736 3.75049 6.75 4.75785 6.75 6.00049C6.75 7.24313 7.75736 8.25049 9 8.25049C10.2426 8.25049 11.25 7.24313 11.25 6.00049C11.25 4.75785 10.2426 3.75049 9 3.75049Z" fill="#F2F2F0"/>
<path d="M12.75 12.0005C12.75 10.7578 13.7574 9.75049 15 9.75049C16.2426 9.75049 17.25 10.7578 17.25 12.0005C17.25 13.2431 16.2426 14.2505 15 14.2505C13.7574 14.2505 12.75 13.2431 12.75 12.0005Z" fill="#F2F2F0"/>
<path d="M9 15.7505C7.75736 15.7505 6.75 16.7578 6.75 18.0005C6.75 19.2431 7.75736 20.2505 9 20.2505C10.2426 20.2505 11.25 19.2431 11.25 18.0005C11.25 16.7578 10.2426 15.7505 9 15.7505Z" fill="#F2F2F0"/>
</svg>
