<svg width="24" height="24" viewBox="0 0 24 24" fill="none" xmlns="http://www.w3.org/2000/svg">
<path d="M6 12.0005C5.58579 12.0005 5.25 11.6647 5.25 11.2505L5.25002 3.75049C5.25002 3.33627 5.5858 3.00049 6.00002 3.00049C6.41423 3.00049 6.75002 3.33628 6.75002 3.75049L6.75 11.2505C6.75 11.6647 6.41421 12.0005 6 12.0005Z" fill="#F2F2F0"/>
<path d="M18 12.0005C17.5858 12.0005 17.25 11.6647 17.25 11.2505L17.25 3.75049C17.25 3.33627 17.5858 3.00049 18 3.00049C18.4142 3.00049 18.75 3.33628 18.75 3.75049L18.75 11.2505C18.75 11.6647 18.4142 12.0005 18 12.0005Z" fill="#F2F2F0"/>
<path d="M6.75001 20.2505L6.75 18.7505C6.75 18.3363 6.41421 18.0005 5.99999 18.0005C5.58578 18.0005 5.25 18.3363 5.25 18.7505L5.25001 20.2505C5.25002 20.6647 5.58581 21.0005 6.00002 21.0005C6.41424 21.0005 6.75002 20.6647 6.75001 20.2505Z" fill="#F2F2F0"/>
<path d="M18.75 18.7505L18.75 20.2505C18.75 20.6647 18.4142 21.0005 18 21.0005C17.5858 21.0005 17.25 20.6647 17.25 20.2505L17.25 18.7505C17.25 18.3363 17.5858 18.0005 18 18.0005C18.4142 18.0005 18.75 18.3363 18.75 18.7505Z" fill="#F2F2F0"/>
<path d="M12.75 5.25048L12.75 3.75048C12.75 3.33627 12.4142 3.00048 12 3.00049C11.5858 3.00049 11.25 3.33628 11.25 3.7505L11.25 5.2505C11.25 5.66471 11.5858 6.00049 12 6.00049C12.4142 6.00048 12.75 5.66469 12.75 5.25048Z" fill="#F2F2F0"/>
<path d="M12 21.0005C11.5858 21.0005 11.25 20.6647 11.25 20.2505V12.7505C11.25 12.3363 11.5858 12.0005 12 12.0005C12.4142 12.0005 12.75 12.3363 12.75 12.7505V20.2505C12.75 20.6647 12.4142 21.0005 12 21.0005Z" fill="#F2F2F0"/>
<path d="M3.75 15.0005C3.75 16.2431 4.75736 17.2505 6 17.2505C7.24264 17.2505 8.25 16.2431 8.25 15.0005C8.25 13.7578 7.24264 12.7505 6 12.7505C4.75736 12.7505 3.75 13.7578 3.75 15.0005Z" fill="#F2F2F0"/>
<path d="M12 11.2505C10.7574 11.2505 9.75 10.2431 9.75 9.00049C9.75 7.75785 10.7574 6.75049 12 6.75049C13.2426 6.75049 14.25 7.75785 14.25 9.00049C14.25 10.2431 13.2426 11.2505 12 11.2505Z" fill="#F2F2F0"/>
<path d="M15.75 15.0005C15.75 16.2431 16.7574 17.2505 18 17.2505C19.2426 17.2505 20.25 16.2431 20.25 15.0005C20.25 13.7578 19.2426 12.7505 18 12.7505C16.7574 12.7505 15.75 13.7578 15.75 15.0005Z" fill="#F2F2F0"/>
</svg>
