<svg width="24" height="24" viewBox="0 0 24 24" fill="none" xmlns="http://www.w3.org/2000/svg">
<path d="M20.25 7.50049L19.6246 18.1326C19.5546 19.3219 18.5698 20.2505 17.3785 20.2505H6.62154C5.43022 20.2505 4.44538 19.3219 4.37542 18.1326L3.75 7.50049M12 10.5005V17.2505M12 17.2505L9 14.2505M12 17.2505L15 14.2505M3.375 7.50049H20.625C21.2463 7.50049 21.75 6.99681 21.75 6.37549V4.87549C21.75 4.25417 21.2463 3.75049 20.625 3.75049H3.375C2.75368 3.75049 2.25 4.25417 2.25 4.87549V6.37549C2.25 6.99681 2.75368 7.50049 3.375 7.50049Z" stroke="#F2F2F0" stroke-width="1.5" stroke-linecap="round" stroke-linejoin="round"/>
</svg>
