<svg width="24" height="24" viewBox="0 0 24 24" fill="none" xmlns="http://www.w3.org/2000/svg">
<path d="M10.125 2.25049H5.625C5.00368 2.25049 4.5 2.75417 4.5 3.37549V20.6255C4.5 21.2468 5.00368 21.7505 5.625 21.7505H18.375C18.9963 21.7505 19.5 21.2468 19.5 20.6255V11.6255M10.125 2.25049H10.5C15.4706 2.25049 19.5 6.27993 19.5 11.2505V11.6255M10.125 2.25049C11.989 2.25049 13.5 3.76153 13.5 5.62549V7.12549C13.5 7.74681 14.0037 8.25049 14.625 8.25049H16.125C17.989 8.25049 19.5 9.76153 19.5 11.6255M9 15.0005L11.25 17.2505L15 12.0005" stroke="#F2F2F0" stroke-width="1.5" stroke-linecap="round" stroke-linejoin="round"/>
</svg>
