<svg width="24" height="24" viewBox="0 0 24 24" fill="none" xmlns="http://www.w3.org/2000/svg">
<path d="M15.75 17.2505V20.6255C15.75 21.2468 15.2463 21.7505 14.625 21.7505H4.875C4.25368 21.7505 3.75 21.2468 3.75 20.6255V7.87549C3.75 7.25417 4.25368 6.75049 4.875 6.75049H6.75C7.26107 6.75049 7.76219 6.79309 8.25 6.87493M15.75 17.2505H19.125C19.7463 17.2505 20.25 16.7468 20.25 16.1255V11.2505C20.25 6.79099 17.0066 3.08904 12.75 2.37493C12.2622 2.29309 11.7611 2.25049 11.25 2.25049H9.375C8.75368 2.25049 8.25 2.75417 8.25 3.37549V6.87493M15.75 17.2505H9.375C8.75368 17.2505 8.25 16.7468 8.25 16.1255V6.87493M20.25 13.5005V11.6255C20.25 9.76153 18.739 8.25049 16.875 8.25049H15.375C14.7537 8.25049 14.25 7.74681 14.25 7.12549V5.62549C14.25 3.76153 12.739 2.25049 10.875 2.25049H9.75" stroke="#F2F2F0" stroke-width="1.5" stroke-linecap="round" stroke-linejoin="round"/>
</svg>
