<svg width="24" height="24" viewBox="0 0 24 24" fill="none" xmlns="http://www.w3.org/2000/svg">
<path d="M6.75 12.0005C6.75 12.4147 6.41421 12.7505 6 12.7505C5.58579 12.7505 5.25 12.4147 5.25 12.0005C5.25 11.5863 5.58579 11.2505 6 11.2505C6.41421 11.2505 6.75 11.5863 6.75 12.0005Z" stroke="#F2F2F0" stroke-width="1.5" stroke-linecap="round" stroke-linejoin="round"/>
<path d="M12.75 12.0005C12.75 12.4147 12.4142 12.7505 12 12.7505C11.5858 12.7505 11.25 12.4147 11.25 12.0005C11.25 11.5863 11.5858 11.2505 12 11.2505C12.4142 11.2505 12.75 11.5863 12.75 12.0005Z" stroke="#F2F2F0" stroke-width="1.5" stroke-linecap="round" stroke-linejoin="round"/>
<path d="M18.75 12.0005C18.75 12.4147 18.4142 12.7505 18 12.7505C17.5858 12.7505 17.25 12.4147 17.25 12.0005C17.25 11.5863 17.5858 11.2505 18 11.2505C18.4142 11.2505 18.75 11.5863 18.75 12.0005Z" stroke="#F2F2F0" stroke-width="1.5" stroke-linecap="round" stroke-linejoin="round"/>
</svg>
