<svg width="24" height="24" viewBox="0 0 24 24" fill="none" xmlns="http://www.w3.org/2000/svg">
<path d="M8.625 12.0005C8.625 12.2076 8.45711 12.3755 8.25 12.3755C8.04289 12.3755 7.875 12.2076 7.875 12.0005C7.875 11.7934 8.04289 11.6255 8.25 11.6255C8.45711 11.6255 8.625 11.7934 8.625 12.0005ZM8.625 12.0005H8.25M12.375 12.0005C12.375 12.2076 12.2071 12.3755 12 12.3755C11.7929 12.3755 11.625 12.2076 11.625 12.0005C11.625 11.7934 11.7929 11.6255 12 11.6255C12.2071 11.6255 12.375 11.7934 12.375 12.0005ZM12.375 12.0005H12M16.125 12.0005C16.125 12.2076 15.9571 12.3755 15.75 12.3755C15.5429 12.3755 15.375 12.2076 15.375 12.0005C15.375 11.7934 15.5429 11.6255 15.75 11.6255C15.9571 11.6255 16.125 11.7934 16.125 12.0005ZM16.125 12.0005H15.75M21 12.0005C21 16.9711 16.9706 21.0005 12 21.0005C7.02944 21.0005 3 16.9711 3 12.0005C3 7.02993 7.02944 3.00049 12 3.00049C16.9706 3.00049 21 7.02993 21 12.0005Z" stroke="#F2F2F0" stroke-width="1.5" stroke-linecap="round" stroke-linejoin="round"/>
</svg>
