<svg width="24" height="24" viewBox="0 0 24 24" fill="none" xmlns="http://www.w3.org/2000/svg">
<path d="M12 6.75049C11.5858 6.75049 11.25 6.4147 11.25 6.00049C11.25 5.58627 11.5858 5.25049 12 5.25049C12.4142 5.25049 12.75 5.58627 12.75 6.00049C12.75 6.4147 12.4142 6.75049 12 6.75049Z" stroke="#F2F2F0" stroke-width="1.5" stroke-linecap="round" stroke-linejoin="round"/>
<path d="M12 12.7505C11.5858 12.7505 11.25 12.4147 11.25 12.0005C11.25 11.5863 11.5858 11.2505 12 11.2505C12.4142 11.2505 12.75 11.5863 12.75 12.0005C12.75 12.4147 12.4142 12.7505 12 12.7505Z" stroke="#F2F2F0" stroke-width="1.5" stroke-linecap="round" stroke-linejoin="round"/>
<path d="M12 18.7505C11.5858 18.7505 11.25 18.4147 11.25 18.0005C11.25 17.5863 11.5858 17.2505 12 17.2505C12.4142 17.2505 12.75 17.5863 12.75 18.0005C12.75 18.4147 12.4142 18.7505 12 18.7505Z" stroke="#F2F2F0" stroke-width="1.5" stroke-linecap="round" stroke-linejoin="round"/>
</svg>
