<svg width="24" height="24" viewBox="0 0 24 24" fill="none" xmlns="http://www.w3.org/2000/svg">
<path d="M21.75 6.75049V17.2505C21.75 18.4931 20.7426 19.5005 19.5 19.5005H4.5C3.25736 19.5005 2.25 18.4931 2.25 17.2505V6.75049M21.75 6.75049C21.75 5.50785 20.7426 4.50049 19.5 4.50049H4.5C3.25736 4.50049 2.25 5.50785 2.25 6.75049M21.75 6.75049V6.9932C21.75 7.77454 21.3447 8.49993 20.6792 8.90943L13.1792 13.5248C12.4561 13.9698 11.5439 13.9698 10.8208 13.5248L3.32078 8.90943C2.65535 8.49993 2.25 7.77454 2.25 6.9932V6.75049" stroke="#F2F2F0" stroke-width="1.5" stroke-linecap="round" stroke-linejoin="round"/>
</svg>
