<svg width="24" height="24" viewBox="0 0 24 24" fill="none" xmlns="http://www.w3.org/2000/svg">
<path d="M2.0355 12.3229C1.96642 12.1156 1.96635 11.8912 2.03531 11.6839C3.42368 7.51021 7.36074 4.50049 12.0008 4.50049C16.6386 4.50049 20.5742 7.50741 21.9643 11.6781C22.0334 11.8854 22.0334 12.1098 21.9645 12.3171C20.5761 16.4908 16.639 19.5005 11.999 19.5005C7.36115 19.5005 3.42559 16.4936 2.0355 12.3229Z" stroke="#F2F2F0" stroke-width="1.5" stroke-linecap="round" stroke-linejoin="round"/>
<path d="M15 12.0005C15 13.6573 13.6568 15.0005 12 15.0005C10.3431 15.0005 8.99995 13.6573 8.99995 12.0005C8.99995 10.3436 10.3431 9.00049 12 9.00049C13.6568 9.00049 15 10.3436 15 12.0005Z" stroke="#F2F2F0" stroke-width="1.5" stroke-linecap="round" stroke-linejoin="round"/>
</svg>
