<svg width="24" height="24" viewBox="0 0 24 24" fill="none" xmlns="http://www.w3.org/2000/svg">
<path d="M15 11.2505L16.5 12.7505L17.25 12.0005V8.75847L19.5264 8.14851C20.019 8.017 20.4847 7.75826 20.8712 7.37181C22.0428 6.20023 22.0428 4.30074 20.8712 3.12917C19.6996 1.9576 17.8001 1.95759 16.6286 3.12917C16.2421 3.51558 15.9832 3.98118 15.8517 4.47373L15.2416 6.75047H12L11.25 7.50047L12.75 9.00048M15 11.2505L6.53033 19.7202C6.19077 20.0597 5.73022 20.2505 5.25 20.2505C4.76978 20.2505 4.30924 20.4413 3.96967 20.7808L3 21.7505L2.25 21.0005L3.21967 20.0308C3.55923 19.6913 3.75 19.2307 3.75 18.7505C3.75 18.2703 3.94077 17.8097 4.28033 17.4702L12.75 9.00048M15 11.2505L12.75 9.00048" stroke="#F2F2F0" stroke-width="1.5" stroke-linecap="round" stroke-linejoin="round"/>
</svg>
