<svg width="24" height="24" viewBox="0 0 24 24" fill="none" xmlns="http://www.w3.org/2000/svg">
<path d="M3.9799 8.22306C3.05679 9.31431 2.35239 10.5965 1.93433 12.002C3.22562 16.3384 7.24308 19.5005 11.9991 19.5005C12.9916 19.5005 13.952 19.3628 14.8622 19.1054M6.2276 6.22812C7.88385 5.13607 9.86768 4.50049 11.9999 4.50049C16.7559 4.50049 20.7734 7.66254 22.0647 11.999C21.3528 14.3924 19.8105 16.4282 17.772 17.7725M6.2276 6.22812L2.99997 3.00049M6.2276 6.22812L9.87865 9.87917M17.772 17.7725L21 21.0005M17.772 17.7725L14.1213 14.1218M14.1213 14.1218C14.6642 13.5789 15 12.8289 15 12.0005C15 10.3436 13.6568 9.00049 12 9.00049C11.1715 9.00049 10.4215 9.33627 9.87865 9.87917M14.1213 14.1218L9.87865 9.87917" stroke="#F2F2F0" stroke-width="1.5" stroke-linecap="round" stroke-linejoin="round"/>
</svg>
