<svg width="24" height="24" viewBox="0 0 24 24" fill="none" xmlns="http://www.w3.org/2000/svg">
<path d="M15.1823 16.3184C14.3075 15.4437 13.1623 15.0043 12.0158 15.0004C10.859 14.9965 9.70095 15.4358 8.81834 16.3184M21 12.0005C21 16.9711 16.9706 21.0005 12 21.0005C7.02944 21.0005 3 16.9711 3 12.0005C3 7.02993 7.02944 3.00049 12 3.00049C16.9706 3.00049 21 7.02993 21 12.0005ZM9.75 9.75049C9.75 10.1647 9.58211 10.5005 9.375 10.5005C9.16789 10.5005 9 10.1647 9 9.75049C9 9.33627 9.16789 9.00049 9.375 9.00049C9.58211 9.00049 9.75 9.33627 9.75 9.75049ZM9.375 9.75049H9.3825V9.76549H9.375V9.75049ZM15 9.75049C15 10.1647 14.8321 10.5005 14.625 10.5005C14.4179 10.5005 14.25 10.1647 14.25 9.75049C14.25 9.33627 14.4179 9.00049 14.625 9.00049C14.8321 9.00049 15 9.33627 15 9.75049ZM14.625 9.75049H14.6325V9.76549H14.625V9.75049Z" stroke="#F2F2F0" stroke-width="1.5" stroke-linecap="round" stroke-linejoin="round"/>
</svg>
