<svg width="24" height="24" viewBox="0 0 24 24" fill="none" xmlns="http://www.w3.org/2000/svg">
<path d="M3.375 19.5005H20.625M3.375 19.5005C2.75368 19.5005 2.25 18.9968 2.25 18.3755M3.375 19.5005H4.875C5.49632 19.5005 6 18.9968 6 18.3755M2.25 18.3755V5.62549M2.25 18.3755V16.8755C2.25 16.2542 2.75368 15.7505 3.375 15.7505M21.75 18.3755V5.62549M21.75 18.3755C21.75 18.9968 21.2463 19.5005 20.625 19.5005M21.75 18.3755V16.8755C21.75 16.2542 21.2463 15.7505 20.625 15.7505M20.625 19.5005H19.125C18.5037 19.5005 18 18.9968 18 18.3755M20.625 4.50049H3.375M20.625 4.50049C21.2463 4.50049 21.75 5.00417 21.75 5.62549M20.625 4.50049H19.125C18.5037 4.50049 18 5.00417 18 5.62549M21.75 5.62549V7.12549C21.75 7.74681 21.2463 8.25049 20.625 8.25049M3.375 4.50049C2.75368 4.50049 2.25 5.00417 2.25 5.62549M3.375 4.50049H4.875C5.49632 4.50049 6 5.00417 6 5.62549M2.25 5.62549V7.12549C2.25 7.74681 2.75368 8.25049 3.375 8.25049M3.375 8.25049H4.875M3.375 8.25049C2.75368 8.25049 2.25 8.75417 2.25 9.37549V10.8755C2.25 11.4968 2.75368 12.0005 3.375 12.0005M4.875 8.25049C5.49632 8.25049 6 7.74681 6 7.12549V5.62549M4.875 8.25049C5.49632 8.25049 6 8.75417 6 9.37549V10.8755M6 5.62549V10.8755M6 5.62549C6 5.00417 6.50368 4.50049 7.125 4.50049H16.875C17.4963 4.50049 18 5.00417 18 5.62549M19.125 8.25049H20.625M19.125 8.25049C18.5037 8.25049 18 7.74681 18 7.12549V5.62549M19.125 8.25049C18.5037 8.25049 18 8.75417 18 9.37549V10.8755M20.625 8.25049C21.2463 8.25049 21.75 8.75417 21.75 9.37549V10.8755C21.75 11.4968 21.2463 12.0005 20.625 12.0005M18 5.62549V10.8755M7.125 12.0005H16.875M7.125 12.0005C6.50368 12.0005 6 11.4968 6 10.8755M7.125 12.0005C6.50368 12.0005 6 12.5042 6 13.1255M6 10.8755C6 11.4968 5.49632 12.0005 4.875 12.0005M18 10.8755C18 11.4968 17.4963 12.0005 16.875 12.0005M18 10.8755C18 11.4968 18.5037 12.0005 19.125 12.0005M16.875 12.0005C17.4963 12.0005 18 12.5042 18 13.1255M6 18.3755V13.1255M6 18.3755C6 18.9968 6.50368 19.5005 7.125 19.5005H16.875C17.4963 19.5005 18 18.9968 18 18.3755M6 18.3755V16.8755C6 16.2542 5.49632 15.7505 4.875 15.7505M18 18.3755V13.1255M18 18.3755V16.8755C18 16.2542 18.5037 15.7505 19.125 15.7505M18 13.1255V14.6255C18 15.2468 18.5037 15.7505 19.125 15.7505M18 13.1255C18 12.5042 18.5037 12.0005 19.125 12.0005M6 13.1255V14.6255C6 15.2468 5.49632 15.7505 4.875 15.7505M6 13.1255C6 12.5042 5.49632 12.0005 4.875 12.0005M3.375 12.0005H4.875M3.375 12.0005C2.75368 12.0005 2.25 12.5042 2.25 13.1255V14.6255C2.25 15.2468 2.75368 15.7505 3.375 15.7505M19.125 12.0005H20.625M20.625 12.0005C21.2463 12.0005 21.75 12.5042 21.75 13.1255V14.6255C21.75 15.2468 21.2463 15.7505 20.625 15.7505M3.375 15.7505H4.875M19.125 15.7505H20.625" stroke="#F2F2F0" stroke-width="1.5" stroke-linecap="round" stroke-linejoin="round"/>
</svg>
