<svg width="24" height="24" viewBox="0 0 24 24" fill="none" xmlns="http://www.w3.org/2000/svg">
<path d="M7.86391 4.24308C9.04956 3.4578 10.4714 3.00049 12 3.00049C16.1421 3.00049 19.5 6.35835 19.5 10.5005C19.5 13.4199 18.9443 16.2094 17.9324 18.769M5.7426 6.3644C4.95732 7.55005 4.5 8.97186 4.5 10.5005C4.5 11.9682 4.07875 13.3374 3.3501 14.4936M5.33889 18.0525C7.14811 16.056 8.25 13.407 8.25 10.5005C8.25 8.42942 9.92893 6.75049 12 6.75049C14.0711 6.75049 15.75 8.42942 15.75 10.5005C15.75 11.0274 15.7286 11.5492 15.686 12.0651M12.0003 10.5005C12.0003 14.2231 10.6443 17.629 8.39916 20.2511M15.033 15.6548C14.4852 17.5748 13.6391 19.369 12.5479 20.9841" stroke="#F2F2F0" stroke-width="1.5" stroke-linecap="round" stroke-linejoin="round"/>
</svg>
