<svg width="24" height="24" viewBox="0 0 24 24" fill="none" xmlns="http://www.w3.org/2000/svg">
<path d="M15.3622 5.2141C18.2427 6.50118 20.25 9.39124 20.25 12.7501C20.25 17.3065 16.5563 21.0001 12 21.0001C7.44365 21.0001 3.75 17.3065 3.75 12.7501C3.75 10.5381 4.62058 8.52938 6.03781 7.04794C6.8043 8.11835 7.82048 8.9978 9.00121 9.60113C9.04632 6.82546 10.348 4.35527 12.3621 2.73462C13.1255 3.75837 14.1379 4.6187 15.3622 5.2141Z" stroke="#F2F2F0" stroke-width="1.5" stroke-linecap="round" stroke-linejoin="round"/>
<path d="M12 18.0005C14.0711 18.0005 15.75 16.3216 15.75 14.2505C15.75 12.3472 14.3321 10.7751 12.4949 10.5329C11.4866 11.4374 10.7862 12.6784 10.5703 14.0791C9.78769 13.8878 9.06529 13.543 8.43682 13.0784C8.31559 13.4472 8.25 13.8412 8.25 14.2505C8.25 16.3216 9.92893 18.0005 12 18.0005Z" stroke="#F2F2F0" stroke-width="1.5" stroke-linecap="round" stroke-linejoin="round"/>
</svg>
