<svg width="24" height="24" viewBox="0 0 24 24" fill="none" xmlns="http://www.w3.org/2000/svg">
<path d="M3 3.00049V4.50049M3 21.0005V15.0005M3 15.0005L5.77009 14.308C7.85435 13.7869 10.0562 14.0286 11.9778 14.9894L12.0856 15.0433C13.9687 15.9848 16.1224 16.2364 18.1718 15.7542L21.2861 15.0214C21.097 13.2904 21 11.5318 21 9.75049C21 7.98391 21.0954 6.23963 21.2814 4.52251L18.1718 5.25418C16.1224 5.7364 13.9687 5.48484 12.0856 4.54327L11.9778 4.4894C10.0562 3.52861 7.85435 3.2869 5.77009 3.80797L3 4.50049M3 15.0005V4.50049" stroke="#F2F2F0" stroke-width="1.5" stroke-linecap="round" stroke-linejoin="round"/>
</svg>
