<svg width="24" height="24" viewBox="0 0 24 24" fill="none" xmlns="http://www.w3.org/2000/svg">
<path d="M3.7499 9.77651C3.86194 9.75939 3.97689 9.75049 4.09417 9.75049H19.9056C20.0229 9.75049 20.1379 9.75939 20.2499 9.77651M3.7499 9.77651C2.55389 9.95928 1.68973 11.0793 1.86679 12.3187L2.72393 18.3187C2.88228 19.4271 3.8316 20.2505 4.95132 20.2505H19.0485C20.1682 20.2505 21.1175 19.4271 21.2759 18.3187L22.133 12.3187C22.3101 11.0793 21.4459 9.95928 20.2499 9.77651M3.7499 9.77651V6.00049C3.7499 4.75785 4.75726 3.75049 5.9999 3.75049H9.87858C10.2764 3.75049 10.6579 3.90852 10.9392 4.18983L13.0606 6.31115C13.3419 6.59245 13.7234 6.75049 14.1212 6.75049H17.9999C19.2425 6.75049 20.2499 7.75785 20.2499 9.00049V9.77651" stroke="#F2F2F0" stroke-width="1.5" stroke-linecap="round" stroke-linejoin="round"/>
</svg>
