<svg width="24" height="24" viewBox="0 0 24 24" fill="none" xmlns="http://www.w3.org/2000/svg">
<path d="M12.0001 3.00049C14.7548 3.00049 17.4552 3.23254 20.0831 3.67815C20.6159 3.76852 21 4.23404 21 4.77451V5.81851C21 6.41524 20.7629 6.98754 20.341 7.4095L14.909 12.8415C14.4871 13.2634 14.25 13.8357 14.25 14.4325V17.3599C14.25 18.2121 13.7685 18.9912 13.0062 19.3724L9.75 21.0005V14.4325C9.75 13.8357 9.51295 13.2634 9.09099 12.8415L3.65901 7.4095C3.23705 6.98754 3 6.41524 3 5.81851V4.77453C3 4.23406 3.38408 3.76854 3.91694 3.67818C6.54479 3.23255 9.24533 3.00049 12.0001 3.00049Z" stroke="#F2F2F0" stroke-width="1.5" stroke-linecap="round" stroke-linejoin="round"/>
</svg>
