<svg width="24" height="24" viewBox="0 0 24 24" fill="none" xmlns="http://www.w3.org/2000/svg">
<path d="M21 11.2505V19.5005C21 20.3289 20.3284 21.0005 19.5 21.0005H5.25C4.42157 21.0005 3.75 20.3289 3.75 19.5005V11.2505M12 4.87549C12 3.42574 10.8247 2.25049 9.375 2.25049C7.92525 2.25049 6.75 3.42574 6.75 4.87549C6.75 6.32524 7.92525 7.50049 9.375 7.50049C10.1095 7.50049 12 7.50049 12 7.50049M12 4.87549C12 5.59073 12 7.50049 12 7.50049M12 4.87549C12 3.42574 13.1753 2.25049 14.625 2.25049C16.0747 2.25049 17.25 3.42574 17.25 4.87549C17.25 6.32524 16.0747 7.50049 14.625 7.50049C13.8905 7.50049 12 7.50049 12 7.50049M12 7.50049V21.0005M3.375 11.2505H21.375C21.9963 11.2505 22.5 10.7468 22.5 10.1255V8.62549C22.5 8.00417 21.9963 7.50049 21.375 7.50049H3.375C2.75368 7.50049 2.25 8.00417 2.25 8.62549V10.1255C2.25 10.7468 2.75368 11.2505 3.375 11.2505Z" stroke="#F2F2F0" stroke-width="1.5" stroke-linecap="round" stroke-linejoin="round"/>
</svg>
