<svg width="24" height="24" viewBox="0 0 24 24" fill="none" xmlns="http://www.w3.org/2000/svg">
<path d="M12 21.0005C16.1926 21.0005 19.7156 18.1337 20.7157 14.2534M12 21.0005C7.80742 21.0005 4.28442 18.1337 3.2843 14.2534M12 21.0005C14.4853 21.0005 16.5 16.9711 16.5 12.0005C16.5 7.02993 14.4853 3.00049 12 3.00049M12 21.0005C9.51472 21.0005 7.5 16.9711 7.5 12.0005C7.5 7.02993 9.51472 3.00049 12 3.00049M12 3.00049C15.3652 3.00049 18.299 4.84743 19.8431 7.58294M12 3.00049C8.63481 3.00049 5.70099 4.84743 4.15692 7.58294M19.8431 7.58294C17.7397 9.40088 14.9983 10.5005 12 10.5005C9.00172 10.5005 6.26027 9.40088 4.15692 7.58294M19.8431 7.58294C20.5797 8.88792 21 10.3951 21 12.0005C21 12.7785 20.9013 13.5334 20.7157 14.2534M20.7157 14.2534C18.1334 15.6852 15.1619 16.5005 12 16.5005C8.8381 16.5005 5.86662 15.6852 3.2843 14.2534M3.2843 14.2534C3.09871 13.5334 3 12.7785 3 12.0005C3 10.3951 3.42032 8.88792 4.15692 7.58294" stroke="#F2F2F0" stroke-width="1.5" stroke-linecap="round" stroke-linejoin="round"/>
</svg>
