<svg width="24" height="24" viewBox="0 0 24 24" fill="none" xmlns="http://www.w3.org/2000/svg">
<path d="M7.49809 15.2505H4.37227C3.34564 15.2505 2.4267 14.5565 2.31801 13.5356C2.27306 13.1134 2.25 12.6846 2.25 12.2505C2.25 9.40287 3.24188 6.78691 4.899 4.72927C5.2866 4.24797 5.88581 4.00049 6.50377 4.00049L10.5198 4.00049C11.0034 4.00049 11.4839 4.07846 11.9428 4.23141L15.0572 5.26956C15.5161 5.42251 15.9966 5.50049 16.4803 5.50049L17.7745 5.50049M7.49809 15.2505C8.11638 15.2505 8.48896 15.9744 8.22337 16.5328C7.75956 17.5079 7.5 18.5989 7.5 19.7505C7.5 20.9931 8.50736 22.0005 9.75 22.0005C10.1642 22.0005 10.5 21.6647 10.5 21.2505V20.6171C10.5 20.0446 10.6092 19.4774 10.8219 18.9459C11.1257 18.1862 11.7523 17.6149 12.4745 17.2303C13.5883 16.6371 14.5627 15.8167 15.3359 14.8308C15.8335 14.1963 16.5611 13.7505 17.3674 13.7505H17.7511M7.49809 15.2505H9.7M17.7745 5.50049C17.7851 5.55049 17.802 5.60011 17.8258 5.64829C18.4175 6.84757 18.75 8.1977 18.75 9.62549C18.75 11.1122 18.3895 12.5148 17.7511 13.7505M17.7745 5.50049C17.6975 5.13583 17.9575 4.75049 18.3493 4.75049H19.2571C20.1458 4.75049 20.9701 5.26851 21.2294 6.11853C21.5679 7.22786 21.75 8.40541 21.75 9.62549C21.75 11.1779 21.4552 12.6616 20.9185 14.0234C20.6135 14.7975 19.8327 15.2505 19.0006 15.2505H17.9479C17.476 15.2505 17.2027 14.6946 17.4477 14.2912C17.5548 14.1149 17.6561 13.9345 17.7511 13.7505" stroke="#F2F2F0" stroke-width="1.5" stroke-linecap="round" stroke-linejoin="round"/>
</svg>
