<svg width="24" height="24" viewBox="0 0 24 24" fill="none" xmlns="http://www.w3.org/2000/svg">
<path d="M6.63257 10.2505C7.43892 10.2505 8.16648 9.80465 8.6641 9.17016C9.43726 8.18433 10.4117 7.36388 11.5255 6.7707C12.2477 6.38612 12.8743 5.81477 13.1781 5.05513C13.3908 4.52358 13.5 3.95636 13.5 3.38387V2.75049C13.5 2.33627 13.8358 2.00049 14.25 2.00049C15.4926 2.00049 16.5 3.00785 16.5 4.25049C16.5 5.40212 16.2404 6.49312 15.7766 7.46819C15.511 8.02653 15.8836 8.75049 16.5019 8.75049M16.5019 8.75049H19.6277C20.6544 8.75049 21.5733 9.44448 21.682 10.4653C21.7269 10.8876 21.75 11.3163 21.75 11.7505C21.75 14.5981 20.7581 17.2141 19.101 19.2717C18.7134 19.753 18.1142 20.0005 17.4962 20.0005H13.4802C12.9966 20.0005 12.5161 19.9225 12.0572 19.7696L8.94278 18.7314C8.48393 18.5785 8.00342 18.5005 7.51975 18.5005H5.90421M16.5019 8.75049H14.25M5.90421 18.5005C5.98702 18.7051 6.07713 18.9059 6.17423 19.1027C6.37137 19.5022 6.0962 20.0005 5.65067 20.0005H4.74289C3.85418 20.0005 3.02991 19.4825 2.77056 18.6324C2.43208 17.5231 2.25 16.3456 2.25 15.1255C2.25 13.573 2.54481 12.0894 3.08149 10.7276C3.38655 9.95352 4.16733 9.50049 4.99936 9.50049H6.05212C6.52404 9.50049 6.7973 10.0564 6.5523 10.4597C5.72588 11.8203 5.25 13.4173 5.25 15.1255C5.25 16.319 5.48232 17.4583 5.90421 18.5005Z" stroke="#F2F2F0" stroke-width="1.5" stroke-linecap="round" stroke-linejoin="round"/>
</svg>
