<svg width="24" height="24" viewBox="0 0 24 24" fill="none" xmlns="http://www.w3.org/2000/svg">
<path d="M15 9.00049H18.75M15 12.0005H18.75M15 15.0005H18.75M4.5 19.5005H19.5C20.7426 19.5005 21.75 18.4931 21.75 17.2505V6.75049C21.75 5.50785 20.7426 4.50049 19.5 4.50049H4.5C3.25736 4.50049 2.25 5.50785 2.25 6.75049V17.2505C2.25 18.4931 3.25736 19.5005 4.5 19.5005ZM10.5 9.37549C10.5 10.411 9.66053 11.2505 8.625 11.2505C7.58947 11.2505 6.75 10.411 6.75 9.37549C6.75 8.33995 7.58947 7.50049 8.625 7.50049C9.66053 7.50049 10.5 8.33995 10.5 9.37549ZM11.7939 15.7118C10.8489 16.2152 9.77021 16.5005 8.62484 16.5005C7.47948 16.5005 6.40074 16.2152 5.45581 15.7118C5.92986 14.4212 7.16983 13.5005 8.62484 13.5005C10.0799 13.5005 11.3198 14.4212 11.7939 15.7118Z" stroke="#F2F2F0" stroke-width="1.5" stroke-linecap="round" stroke-linejoin="round"/>
</svg>
