<svg width="24" height="24" viewBox="0 0 24 24" fill="none" xmlns="http://www.w3.org/2000/svg">
<path d="M15.75 5.25049C17.4069 5.25049 18.75 6.59363 18.75 8.25049M21.75 8.25049C21.75 11.5642 19.0637 14.2505 15.75 14.2505C15.3993 14.2505 15.0555 14.2204 14.7213 14.1626C14.1583 14.0654 13.562 14.1885 13.158 14.5925L10.5 17.2505H8.25V19.5005H6V21.7505H2.25V18.9325C2.25 18.3357 2.48705 17.7634 2.90901 17.3415L9.408 10.8425C9.81202 10.4385 9.93512 9.84221 9.83785 9.27919C9.7801 8.94495 9.75 8.60123 9.75 8.25049C9.75 4.93678 12.4363 2.25049 15.75 2.25049C19.0637 2.25049 21.75 4.93678 21.75 8.25049Z" stroke="#F2F2F0" stroke-width="1.5" stroke-linecap="round" stroke-linejoin="round"/>
</svg>
