<svg width="24" height="24" viewBox="0 0 24 24" fill="none" xmlns="http://www.w3.org/2000/svg">
<path d="M16.7124 4.33039C17.2999 4.69202 17.8548 5.1274 18.364 5.63653C18.8731 6.14566 19.3085 6.70061 19.6701 7.28812M16.7124 4.33039L13.2636 8.46887M16.7124 4.33039C13.8316 2.55719 10.1684 2.55719 7.28763 4.33039M19.6701 7.28812L15.5316 10.7369M19.6701 7.28812C21.4433 10.1689 21.4433 13.8321 19.6701 16.7129M15.5316 10.7369C15.3507 10.2301 15.0574 9.75457 14.6517 9.34884C14.2459 8.94311 13.7703 8.64979 13.2636 8.46887M15.5316 10.7369C15.8228 11.5524 15.8228 12.4486 15.5316 13.2641M13.2636 8.46887C12.4481 8.17769 11.5519 8.17769 10.7364 8.46887M15.5316 13.2641C15.3507 13.7708 15.0574 14.2464 14.6517 14.6521C14.2459 15.0579 13.7703 15.3512 13.2636 15.5321M15.5316 13.2641L19.6701 16.7129M19.6701 16.7129C19.3085 17.3004 18.8731 17.8553 18.364 18.3644C17.8548 18.8736 17.2999 19.309 16.7124 19.6706M16.7124 19.6706L13.2636 15.5321M16.7124 19.6706C13.8316 21.4438 10.1684 21.4438 7.28763 19.6706M13.2636 15.5321C12.4481 15.8233 11.5519 15.8233 10.7364 15.5321M10.7364 15.5321C10.2297 15.3512 9.75408 15.0579 9.34835 14.6521C8.94262 14.2464 8.6493 13.7708 8.46838 13.2641M10.7364 15.5321L7.28763 19.6706M7.28763 19.6706C6.70012 19.309 6.14517 18.8736 5.63604 18.3644C5.12691 17.8553 4.69153 17.3004 4.3299 16.7129M4.3299 16.7129L8.46838 13.2641M4.3299 16.7129C2.5567 13.8321 2.5567 10.1689 4.3299 7.28812M8.46838 13.2641C8.17721 12.4486 8.17721 11.5524 8.46838 10.7369M8.46838 10.7369C8.6493 10.2301 8.94262 9.75457 9.34835 9.34884C9.75408 8.94311 10.2297 8.64979 10.7364 8.46887M8.46838 10.7369L4.3299 7.28812M10.7364 8.46887L7.28763 4.33039M7.28763 4.33039C6.70012 4.69202 6.14517 5.1274 5.63604 5.63653C5.12691 6.14566 4.69153 6.70061 4.3299 7.28812" stroke="#F2F2F0" stroke-width="1.5" stroke-linecap="round" stroke-linejoin="round"/>
</svg>
