<svg width="24" height="24" viewBox="0 0 24 24" fill="none" xmlns="http://www.w3.org/2000/svg">
<g clip-path="url(#clip0_147_2370)">
<path d="M12 18.0005V12.7505M12 12.7505C12.5179 12.7505 13.0206 12.6849 13.5 12.5615M12 12.7505C11.4821 12.7505 10.9794 12.6849 10.5 12.5615M14.25 20.0399C13.5212 20.1782 12.769 20.2505 12 20.2505C11.231 20.2505 10.4788 20.1782 9.75 20.0399M13.5 22.4225C13.007 22.4741 12.5066 22.5005 12 22.5005C11.4934 22.5005 10.993 22.4741 10.5 22.4225M14.25 18.0005V17.8088C14.25 16.8259 14.9083 15.9855 15.7585 15.4922C17.9955 14.1942 19.5 11.7731 19.5 9.00049C19.5 4.85835 16.1421 1.50049 12 1.50049C7.85786 1.50049 4.5 4.85835 4.5 9.00049C4.5 11.7731 6.00446 14.1942 8.24155 15.4922C9.09173 15.9855 9.75 16.8259 9.75 17.8088V18.0005" stroke="#F2F2F0" stroke-width="1.5" stroke-linecap="round" stroke-linejoin="round"/>
</g>
<defs>
<clipPath id="clip0_147_2370">
<rect width="24" height="24" fill="white" transform="translate(0 0.000488281)"/>
</clipPath>
</defs>
</svg>
