<svg width="24" height="24" viewBox="0 0 24 24" fill="none" xmlns="http://www.w3.org/2000/svg">
<path d="M13.1903 8.68891C13.6393 8.9034 14.0601 9.1966 14.432 9.56851C16.1893 11.3259 16.1893 14.1751 14.432 15.9325L9.93198 20.4325C8.17462 22.1898 5.32538 22.1898 3.56802 20.4325C1.81066 18.6751 1.81066 15.8259 3.56802 14.0685L5.32499 12.3115M18.675 11.6894L20.432 9.93247C22.1893 8.17511 22.1893 5.32587 20.432 3.56851C18.6746 1.81115 15.8254 1.81115 14.068 3.56851L9.56802 8.06851C7.81066 9.82587 7.81066 12.6751 9.56802 14.4325C9.93992 14.8044 10.3607 15.0976 10.8097 15.3121" stroke="#F2F2F0" stroke-width="1.5" stroke-linecap="round" stroke-linejoin="round"/>
</svg>
