<svg width="24" height="24" viewBox="0 0 24 24" fill="none" xmlns="http://www.w3.org/2000/svg">
<path d="M8.25 6.75049H20.25M8.25 12.0005H20.25M8.25 17.2505H20.25M3.75 6.75049H3.7575V6.75799H3.75V6.75049ZM4.125 6.75049C4.125 6.9576 3.95711 7.12549 3.75 7.12549C3.54289 7.12549 3.375 6.9576 3.375 6.75049C3.375 6.54338 3.54289 6.37549 3.75 6.37549C3.95711 6.37549 4.125 6.54338 4.125 6.75049ZM3.75 12.0005H3.7575V12.008H3.75V12.0005ZM4.125 12.0005C4.125 12.2076 3.95711 12.3755 3.75 12.3755C3.54289 12.3755 3.375 12.2076 3.375 12.0005C3.375 11.7934 3.54289 11.6255 3.75 11.6255C3.95711 11.6255 4.125 11.7934 4.125 12.0005ZM3.75 17.2505H3.7575V17.258H3.75V17.2505ZM4.125 17.2505C4.125 17.4576 3.95711 17.6255 3.75 17.6255C3.54289 17.6255 3.375 17.4576 3.375 17.2505C3.375 17.0434 3.54289 16.8755 3.75 16.8755C3.95711 16.8755 4.125 17.0434 4.125 17.2505Z" stroke="#F2F2F0" stroke-width="1.5" stroke-linecap="round" stroke-linejoin="round"/>
</svg>
