<svg width="24" height="24" viewBox="0 0 24 24" fill="none" xmlns="http://www.w3.org/2000/svg">
<path d="M9 6.75051V15.0005M15 9.00051V17.2505M15.5031 20.749L20.3781 18.3115C20.7592 18.1209 21 17.7313 21 17.3052V4.8208C21 3.9845 20.1199 3.44056 19.3719 3.81457L15.5031 5.74895C15.1864 5.90731 14.8136 5.90731 14.4969 5.74895L9.50312 3.25207C9.1864 3.09371 8.8136 3.09371 8.49688 3.25207L3.62188 5.68957C3.24075 5.88014 3 6.26968 3 6.6958V19.1802C3 20.0165 3.8801 20.5605 4.62811 20.1865L8.49688 18.2521C8.8136 18.0937 9.1864 18.0937 9.50312 18.2521L14.4969 20.749C14.8136 20.9073 15.1864 20.9073 15.5031 20.749Z" stroke="#F2F2F0" stroke-width="1.5" stroke-linecap="round" stroke-linejoin="round"/>
</svg>
