<svg width="24" height="24" viewBox="0 0 24 24" fill="none" xmlns="http://www.w3.org/2000/svg">
<path d="M10.3404 15.8403C9.65153 15.7808 8.95431 15.7505 8.25 15.7505H7.5C5.01472 15.7505 3 13.7358 3 11.2505C3 8.7652 5.01472 6.75049 7.5 6.75049H8.25C8.95431 6.75049 9.65153 6.72015 10.3404 6.66071M10.3404 15.8403C10.5933 16.802 10.9237 17.7322 11.3246 18.6239C11.5721 19.1743 11.3842 19.8332 10.8616 20.135L10.2053 20.5139C9.6539 20.8322 8.9456 20.6311 8.67841 20.0532C8.0518 18.6978 7.56541 17.2644 7.23786 15.7714M10.3404 15.8403C9.95517 14.375 9.75 12.8367 9.75 11.2505C9.75 9.66428 9.95518 8.12599 10.3404 6.66071M10.3404 15.8403C13.5 16.1129 16.4845 16.9977 19.1747 18.3754M10.3404 6.66071C13.5 6.38809 16.4845 5.50332 19.1747 4.12558M19.1747 4.12558C19.057 3.74643 18.9302 3.37132 18.7944 3.00049M19.1747 4.12558C19.7097 5.84876 20.0557 7.65511 20.1886 9.5204M19.1747 18.3754C19.057 18.7545 18.9302 19.1297 18.7944 19.5005M19.1747 18.3754C19.7097 16.6522 20.0557 14.8459 20.1886 12.9806M20.1886 9.5204C20.6844 9.93313 21 10.555 21 11.2505C21 11.946 20.6844 12.5678 20.1886 12.9806M20.1886 9.5204C20.2293 10.0918 20.25 10.6687 20.25 11.2505C20.25 11.8322 20.2293 12.4092 20.1886 12.9806" stroke="#F2F2F0" stroke-width="1.5" stroke-linecap="round" stroke-linejoin="round"/>
</svg>
