<svg width="24" height="24" viewBox="0 0 24 24" fill="none" xmlns="http://www.w3.org/2000/svg">
<path d="M9 9.00049L19.5 6.00049M19.5 12.5533V16.3033C19.5 17.3079 18.834 18.1908 17.8681 18.4667L16.5481 18.8439C15.3964 19.1729 14.25 18.3082 14.25 17.1104C14.25 16.3054 14.7836 15.598 15.5576 15.3769L17.8681 14.7167C18.834 14.4408 19.5 13.5579 19.5 12.5533ZM19.5 12.5533V2.25049L9 5.25049V15.5533M9 15.5533V19.3033C9 20.3079 8.33405 21.1908 7.36812 21.4667L6.04814 21.8439C4.89645 22.1729 3.75 21.3082 3.75 20.1104C3.75 19.3054 4.2836 18.598 5.05757 18.3769L7.36812 17.7167C8.33405 17.4408 9 16.5579 9 15.5533Z" stroke="#F2F2F0" stroke-width="1.5" stroke-linecap="round" stroke-linejoin="round"/>
</svg>
