<svg width="24" height="24" viewBox="0 0 24 24" fill="none" xmlns="http://www.w3.org/2000/svg">
<path d="M9.53086 16.1229C9.08517 15.0248 8.00801 14.2505 6.75 14.2505C5.09315 14.2505 3.75 15.5936 3.75 17.2505C3.75 18.4931 2.74262 19.5005 1.49998 19.5005C1.44928 19.5005 1.39898 19.4988 1.34912 19.4955C2.12648 20.8433 3.58229 21.7505 5.24998 21.7505C7.72821 21.7505 9.73854 19.7472 9.74993 17.2716C9.74998 17.2646 9.75 17.2575 9.75 17.2505C9.75 16.8516 9.67217 16.471 9.53086 16.1229ZM9.53086 16.1229C10.7252 15.7158 11.8612 15.1709 12.9175 14.5032M7.875 14.4774C8.2823 13.2802 8.8281 12.1416 9.49724 11.083M12.9175 14.5032C14.798 13.3146 16.4259 11.7367 17.6806 9.85454L21.5566 4.04055C21.6827 3.85142 21.75 3.62919 21.75 3.40188C21.75 2.76598 21.2345 2.25049 20.5986 2.25049C20.3713 2.25049 20.1491 2.31777 19.9599 2.44386L14.1459 6.31986C12.2638 7.57462 10.6859 9.20252 9.49724 11.083M12.9175 14.5032C12.2396 12.9838 11.0167 11.7609 9.49724 11.083" stroke="#F2F2F0" stroke-width="1.5" stroke-linecap="round" stroke-linejoin="round"/>
</svg>
