<svg width="24" height="24" viewBox="0 0 24 24" fill="none" xmlns="http://www.w3.org/2000/svg">
<path d="M16.8617 4.48716L18.5492 2.79966C19.2814 2.06743 20.4686 2.06743 21.2008 2.79966C21.9331 3.5319 21.9331 4.71908 21.2008 5.45131L10.5822 16.07C10.0535 16.5986 9.40144 16.9873 8.68489 17.2007L6 18.0005L6.79978 15.3156C7.01323 14.5991 7.40185 13.947 7.93052 13.4183L16.8617 4.48716ZM16.8617 4.48716L19.5 7.12548M18 14.0005V18.7505C18 19.9931 16.9926 21.0005 15.75 21.0005H5.25C4.00736 21.0005 3 19.9931 3 18.7505V8.25048C3 7.00784 4.00736 6.00048 5.25 6.00048H10" stroke="#F2F2F0" stroke-width="1.5" stroke-linecap="round" stroke-linejoin="round"/>
</svg>
