<svg width="24" height="24" viewBox="0 0 24 24" fill="none" xmlns="http://www.w3.org/2000/svg">
<path d="M2.25 6.75049C2.25 15.0348 8.96573 21.7505 17.25 21.7505H19.5C20.7426 21.7505 21.75 20.7431 21.75 19.5005V18.1289C21.75 17.6126 21.3987 17.1627 20.8979 17.0375L16.4747 15.9317C16.0355 15.8219 15.5734 15.986 15.3018 16.3481L14.3316 17.6417C14.05 18.0171 13.563 18.1831 13.1223 18.0217C9.81539 16.8103 7.19015 14.1851 5.97876 10.8781C5.81734 10.4375 5.98336 9.95047 6.3588 9.66889L7.65242 8.69867C8.01453 8.42709 8.17861 7.96494 8.06883 7.52582L6.96304 3.10264C6.83783 2.60182 6.38785 2.25049 5.87163 2.25049H4.5C3.25736 2.25049 2.25 3.25785 2.25 4.50049V6.75049Z" stroke="#F2F2F0" stroke-width="1.5" stroke-linecap="round" stroke-linejoin="round"/>
</svg>
