<svg width="24" height="24" viewBox="0 0 24 24" fill="none" xmlns="http://www.w3.org/2000/svg">
<path d="M2.25 15.7505L7.40901 10.5915C8.28769 9.7128 9.71231 9.7128 10.591 10.5915L15.75 15.7505M14.25 14.2505L15.659 12.8415C16.5377 11.9628 17.9623 11.9628 18.841 12.8415L21.75 15.7505M3.75 19.5005H20.25C21.0784 19.5005 21.75 18.8289 21.75 18.0005V6.00049C21.75 5.17206 21.0784 4.50049 20.25 4.50049H3.75C2.92157 4.50049 2.25 5.17206 2.25 6.00049V18.0005C2.25 18.8289 2.92157 19.5005 3.75 19.5005ZM14.25 8.25049H14.2575V8.25799H14.25V8.25049ZM14.625 8.25049C14.625 8.4576 14.4571 8.62549 14.25 8.62549C14.0429 8.62549 13.875 8.4576 13.875 8.25049C13.875 8.04338 14.0429 7.87549 14.25 7.87549C14.4571 7.87549 14.625 8.04338 14.625 8.25049Z" stroke="#F2F2F0" stroke-width="1.5" stroke-linecap="round" stroke-linejoin="round"/>
</svg>
