<svg width="24" height="24" viewBox="0 0 24 24" fill="none" xmlns="http://www.w3.org/2000/svg">
<path d="M3.75 3.00049V14.2505C3.75 15.4931 4.75736 16.5005 6 16.5005H8.25M3.75 3.00049H2.25M3.75 3.00049H20.25M20.25 3.00049H21.75M20.25 3.00049V14.2505C20.25 15.4931 19.2426 16.5005 18 16.5005H15.75M8.25 16.5005H15.75M8.25 16.5005L7.25 19.5005M15.75 16.5005L16.75 19.5005M16.75 19.5005L17.25 21.0005M16.75 19.5005H7.25M7.25 19.5005L6.75 21.0005M7.5 12.0005L10.5 9.00049L12.6476 11.1481C13.6542 9.7035 14.9704 8.49071 16.5 7.60588" stroke="#F2F2F0" stroke-width="1.5" stroke-linecap="round" stroke-linejoin="round"/>
</svg>
