<svg width="24" height="24" viewBox="0 0 24 24" fill="none" xmlns="http://www.w3.org/2000/svg">
<path d="M9.87891 7.51933C11.0505 6.49421 12.95 6.49421 14.1215 7.51933C15.2931 8.54446 15.2931 10.2065 14.1215 11.2316C13.9176 11.4101 13.6917 11.5574 13.4513 11.6738C12.7056 12.0346 12.0002 12.6721 12.0002 13.5005V14.2505M21 12.0005C21 16.9711 16.9706 21.0005 12 21.0005C7.02944 21.0005 3 16.9711 3 12.0005C3 7.02993 7.02944 3.00049 12 3.00049C16.9706 3.00049 21 7.02993 21 12.0005ZM12 17.2505H12.0075V17.258H12V17.2505Z" stroke="#F2F2F0" stroke-width="1.5" stroke-linecap="round" stroke-linejoin="round"/>
</svg>
