<svg width="24" height="24" viewBox="0 0 24 24" fill="none" xmlns="http://www.w3.org/2000/svg">
<path d="M3.75 4.87549C3.75 4.25417 4.25368 3.75049 4.875 3.75049H9.375C9.99632 3.75049 10.5 4.25417 10.5 4.87549V9.37549C10.5 9.99681 9.99632 10.5005 9.375 10.5005H4.875C4.25368 10.5005 3.75 9.99681 3.75 9.37549V4.87549Z" stroke="#F2F2F0" stroke-width="1.5" stroke-linecap="round" stroke-linejoin="round"/>
<path d="M3.75 14.6255C3.75 14.0042 4.25368 13.5005 4.875 13.5005H9.375C9.99632 13.5005 10.5 14.0042 10.5 14.6255V19.1255C10.5 19.7468 9.99632 20.2505 9.375 20.2505H4.875C4.25368 20.2505 3.75 19.7468 3.75 19.1255V14.6255Z" stroke="#F2F2F0" stroke-width="1.5" stroke-linecap="round" stroke-linejoin="round"/>
<path d="M13.5 4.87549C13.5 4.25417 14.0037 3.75049 14.625 3.75049H19.125C19.7463 3.75049 20.25 4.25417 20.25 4.87549V9.37549C20.25 9.99681 19.7463 10.5005 19.125 10.5005H14.625C14.0037 10.5005 13.5 9.99681 13.5 9.37549V4.87549Z" stroke="#F2F2F0" stroke-width="1.5" stroke-linecap="round" stroke-linejoin="round"/>
<path d="M6.75 6.75049H7.5V7.50049H6.75V6.75049Z" stroke="#F2F2F0" stroke-width="1.5" stroke-linecap="round" stroke-linejoin="round"/>
<path d="M6.75 16.5005H7.5V17.2505H6.75V16.5005Z" stroke="#F2F2F0" stroke-width="1.5" stroke-linecap="round" stroke-linejoin="round"/>
<path d="M16.5 6.75049H17.25V7.50049H16.5V6.75049Z" stroke="#F2F2F0" stroke-width="1.5" stroke-linecap="round" stroke-linejoin="round"/>
<path d="M13.5 13.5005H14.25V14.2505H13.5V13.5005Z" stroke="#F2F2F0" stroke-width="1.5" stroke-linecap="round" stroke-linejoin="round"/>
<path d="M13.5 19.5005H14.25V20.2505H13.5V19.5005Z" stroke="#F2F2F0" stroke-width="1.5" stroke-linecap="round" stroke-linejoin="round"/>
<path d="M19.5 13.5005H20.25V14.2505H19.5V13.5005Z" stroke="#F2F2F0" stroke-width="1.5" stroke-linecap="round" stroke-linejoin="round"/>
<path d="M19.5 19.5005H20.25V20.2505H19.5V19.5005Z" stroke="#F2F2F0" stroke-width="1.5" stroke-linecap="round" stroke-linejoin="round"/>
<path d="M16.5 16.5005H17.25V17.2505H16.5V16.5005Z" stroke="#F2F2F0" stroke-width="1.5" stroke-linecap="round" stroke-linejoin="round"/>
</svg>
