<svg width="24" height="24" viewBox="0 0 24 24" fill="none" xmlns="http://www.w3.org/2000/svg">
<path d="M12 16.5005L12 9.75049M12 9.75049L15 12.7505M12 9.75049L9 12.7505M6.75 19.5005C4.26472 19.5005 2.25 17.4858 2.25 15.0005C2.25 13.0075 3.54555 11.3172 5.3404 10.7257C5.28105 10.4097 5.25 10.0837 5.25 9.75049C5.25 6.85099 7.60051 4.50049 10.5 4.50049C12.9312 4.50049 14.9765 6.15309 15.5737 8.39623C15.8654 8.30162 16.1767 8.25049 16.5 8.25049C18.1569 8.25049 19.5 9.59363 19.5 11.2505C19.5 11.5986 19.4407 11.9329 19.3316 12.2438C20.7453 12.7809 21.75 14.1484 21.75 15.7505C21.75 17.8216 20.0711 19.5005 18 19.5005H6.75Z" stroke="#F2F2F0" stroke-width="1.5" stroke-linecap="round" stroke-linejoin="round"/>
</svg>
