<svg width="24" height="24" viewBox="0 0 24 24" fill="none" xmlns="http://www.w3.org/2000/svg">
<path d="M6 6.87852V6.00049C6 4.75785 7.00736 3.75049 8.25 3.75049H15.75C16.9926 3.75049 18 4.75785 18 6.00049V6.87852M6 6.87852C6.23458 6.7956 6.48702 6.75049 6.75 6.75049H17.25C17.513 6.75049 17.7654 6.7956 18 6.87852M6 6.87852C5.12611 7.18739 4.5 8.02082 4.5 9.00049V9.87852M18 6.87852C18.8739 7.18739 19.5 8.02082 19.5 9.00049V9.87852M19.5 9.87852C19.2654 9.7956 19.013 9.75049 18.75 9.75049H5.25C4.98702 9.75049 4.73458 9.7956 4.5 9.87852M19.5 9.87852C20.3739 10.1874 21 11.0208 21 12.0005V18.0005C21 19.2431 19.9926 20.2505 18.75 20.2505H5.25C4.00736 20.2505 3 19.2431 3 18.0005V12.0005C3 11.0208 3.62611 10.1874 4.5 9.87852" stroke="#F2F2F0" stroke-width="1.5" stroke-linecap="round" stroke-linejoin="round"/>
</svg>
