<svg width="24" height="24" viewBox="0 0 24 24" fill="none" xmlns="http://www.w3.org/2000/svg">
<path d="M15.5904 14.3701C15.6948 14.8133 15.75 15.2754 15.75 15.7505C15.75 19.0642 13.0637 21.7505 9.75 21.7505V16.9508M15.5904 14.3701C19.3244 11.6416 21.75 7.22923 21.75 2.25049C16.7715 2.2507 12.3595 4.67635 9.63122 8.41024M15.5904 14.3701C13.8819 15.6186 11.8994 16.5145 9.75 16.9508M9.63122 8.41024C9.18777 8.30576 8.72534 8.25049 8.25 8.25049C4.93629 8.25049 2.25 10.9368 2.25 14.2505H7.05072M9.63122 8.41024C8.38285 10.1188 7.48701 12.1012 7.05072 14.2505M9.75 16.9508C9.64659 16.9718 9.54279 16.9917 9.43862 17.0106C8.53171 16.2915 7.70991 15.4697 6.99079 14.5628C7.00969 14.4583 7.02967 14.3542 7.05072 14.2505M4.81191 16.6412C3.71213 17.4617 3 18.7729 3 20.2505C3 20.4874 3.0183 20.7199 3.05356 20.9469C3.28054 20.9822 3.51313 21.0005 3.75 21.0005C5.22758 21.0005 6.53883 20.2884 7.35925 19.1886M16.5 9.00049C16.5 9.82892 15.8284 10.5005 15 10.5005C14.1716 10.5005 13.5 9.82892 13.5 9.00049C13.5 8.17206 14.1716 7.50049 15 7.50049C15.8284 7.50049 16.5 8.17206 16.5 9.00049Z" stroke="#F2F2F0" stroke-width="1.5" stroke-linecap="round" stroke-linejoin="round"/>
</svg>
