<svg width="24" height="24" viewBox="0 0 24 24" fill="none" xmlns="http://www.w3.org/2000/svg">
<path d="M12 3.00049V20.2505M12 20.2505C10.528 20.2505 9.1179 20.5155 7.81483 21.0005M12 20.2505C13.472 20.2505 14.8821 20.5155 16.1852 21.0005M18.75 4.97138C16.5446 4.661 14.291 4.50049 12 4.50049C9.70897 4.50049 7.45542 4.661 5.25 4.97138M18.75 4.97138C19.7604 5.11359 20.7608 5.28726 21.75 5.49136M18.75 4.97138L21.3704 15.6966C21.4922 16.1953 21.2642 16.7242 20.7811 16.898C20.1468 17.1261 19.4629 17.2505 18.75 17.2505C18.0371 17.2505 17.3532 17.1261 16.7189 16.898C16.2358 16.7242 16.0078 16.1953 16.1296 15.6966L18.75 4.97138ZM2.25 5.49136C3.23922 5.28726 4.23956 5.11359 5.25 4.97138M5.25 4.97138L7.87036 15.6966C7.9922 16.1953 7.76419 16.7242 7.28114 16.898C6.6468 17.1261 5.96292 17.2505 5.25 17.2505C4.53708 17.2505 3.8532 17.1261 3.21886 16.898C2.73581 16.7242 2.5078 16.1953 2.62964 15.6966L5.25 4.97138Z" stroke="#F2F2F0" stroke-width="1.5" stroke-linecap="round" stroke-linejoin="round"/>
</svg>
