<svg width="24" height="24" viewBox="0 0 24 24" fill="none" xmlns="http://www.w3.org/2000/svg">
<path d="M21.75 17.2505V17.0228C21.75 16.6757 21.7099 16.3299 21.6304 15.9921L19.3622 6.35248C19.0035 4.82794 17.6431 3.75049 16.077 3.75049H7.92305C6.35688 3.75049 4.99648 4.82794 4.63777 6.35248L2.36962 15.9921C2.29014 16.3299 2.25 16.6757 2.25 17.0228V17.2505M21.75 17.2505C21.75 18.9073 20.4069 20.2505 18.75 20.2505H5.25C3.59315 20.2505 2.25 18.9073 2.25 17.2505M21.75 17.2505C21.75 15.5936 20.4069 14.2505 18.75 14.2505H5.25C3.59315 14.2505 2.25 15.5936 2.25 17.2505M18.75 17.2505H18.7575V17.258H18.75V17.2505ZM15.75 17.2505H15.7575V17.258H15.75V17.2505Z" stroke="#F2F2F0" stroke-width="1.5" stroke-linecap="round" stroke-linejoin="round"/>
</svg>
