<svg width="24" height="24" viewBox="0 0 24 24" fill="none" xmlns="http://www.w3.org/2000/svg">
<path d="M5.25 14.2505H18.75M5.25 14.2505C3.59315 14.2505 2.25 12.9073 2.25 11.2505M5.25 14.2505C3.59315 14.2505 2.25 15.5936 2.25 17.2505C2.25 18.9073 3.59315 20.2505 5.25 20.2505H18.75C20.4069 20.2505 21.75 18.9073 21.75 17.2505C21.75 15.5936 20.4069 14.2505 18.75 14.2505M2.25 11.2505C2.25 9.59363 3.59315 8.25049 5.25 8.25049H18.75C20.4069 8.25049 21.75 9.59363 21.75 11.2505M2.25 11.2505C2.25 10.2768 2.5658 9.32942 3.15 8.55049L5.7375 5.10049C6.37488 4.25064 7.37519 3.75049 8.4375 3.75049H15.5625C16.6248 3.75049 17.6251 4.25064 18.2625 5.10049L20.85 8.55049C21.4342 9.32942 21.75 10.2768 21.75 11.2505M21.75 11.2505C21.75 12.9073 20.4069 14.2505 18.75 14.2505M18.75 17.2505H18.7575V17.258H18.75V17.2505ZM18.75 11.2505H18.7575V11.258H18.75V11.2505ZM15.75 17.2505H15.7575V17.258H15.75V17.2505ZM15.75 11.2505H15.7575V11.258H15.75V11.2505Z" stroke="#F2F2F0" stroke-width="1.5" stroke-linecap="round" stroke-linejoin="round"/>
</svg>
