<svg width="24" height="24" viewBox="0 0 24 24" fill="none" xmlns="http://www.w3.org/2000/svg">
<path d="M7.21721 10.9076C6.83295 10.2174 6.096 9.75049 5.25 9.75049C4.00736 9.75049 3 10.7578 3 12.0005C3 13.2431 4.00736 14.2505 5.25 14.2505C6.096 14.2505 6.83295 13.7836 7.21721 13.0934M7.21721 10.9076C7.39737 11.2312 7.5 11.6038 7.5 12.0005C7.5 12.3971 7.39737 12.7698 7.21721 13.0934M7.21721 10.9076L16.7828 5.59338M7.21721 13.0934L16.7828 18.4076M16.7828 18.4076C16.6026 18.7312 16.5 19.1038 16.5 19.5005C16.5 20.7431 17.5074 21.7505 18.75 21.7505C19.9926 21.7505 21 20.7431 21 19.5005C21 18.2578 19.9926 17.2505 18.75 17.2505C17.904 17.2505 17.1671 17.7174 16.7828 18.4076ZM16.7828 5.59338C17.1671 6.28358 17.904 6.75049 18.75 6.75049C19.9926 6.75049 21 5.74313 21 4.50049C21 3.25785 19.9926 2.25049 18.75 2.25049C17.5074 2.25049 16.5 3.25785 16.5 4.50049C16.5 4.89713 16.6026 5.26979 16.7828 5.59338Z" stroke="#F2F2F0" stroke-width="1.5" stroke-linecap="round" stroke-linejoin="round"/>
</svg>
