<svg width="24" height="24" viewBox="0 0 24 24" fill="none" xmlns="http://www.w3.org/2000/svg">
<path d="M19.5 12.0005C19.5 10.7686 19.4536 9.54748 19.3624 8.33889C19.2128 6.35474 17.6458 4.78773 15.6616 4.63806C14.453 4.5469 13.2319 4.50049 12 4.50049C10.7681 4.50049 9.54699 4.5469 8.3384 4.63806C6.35425 4.78773 4.78724 6.35474 4.63757 8.33889C4.62097 8.55901 4.60585 8.77955 4.59222 9.00049M19.5 12.0005L22.5 9.00049M19.5 12.0005L16.5 9.00049M4.5 12.0005C4.5 13.2324 4.54641 14.4535 4.63757 15.6621C4.78724 17.6462 6.35425 19.2132 8.3384 19.3629C9.54699 19.4541 10.7681 19.5005 12 19.5005C13.2319 19.5005 14.453 19.4541 15.6616 19.3629C17.6458 19.2132 19.2128 17.6462 19.3624 15.6621C19.379 15.442 19.3941 15.2214 19.4078 15.0005M4.5 12.0005L7.5 15.0005M4.5 12.0005L1.5 15.0005" stroke="#F2F2F0" stroke-width="1.5" stroke-linecap="round" stroke-linejoin="round"/>
</svg>
