<svg width="24" height="24" viewBox="0 0 24 24" fill="none" xmlns="http://www.w3.org/2000/svg">
<path d="M15.75 10.5005V6.00049C15.75 3.92942 14.0711 2.25049 12 2.25049C9.92893 2.25049 8.25 3.92942 8.25 6.00049V10.5005M19.606 8.50772L20.8692 20.5077C20.9391 21.172 20.4183 21.7505 19.7504 21.7505H4.24963C3.58172 21.7505 3.06089 21.172 3.13081 20.5077L4.39397 8.50772C4.45424 7.93515 4.93706 7.50049 5.51279 7.50049H18.4872C19.0629 7.50049 19.5458 7.93515 19.606 8.50772ZM8.625 10.5005C8.625 10.7076 8.4571 10.8755 8.25 10.8755C8.04289 10.8755 7.875 10.7076 7.875 10.5005C7.875 10.2934 8.04289 10.1255 8.25 10.1255C8.4571 10.1255 8.625 10.2934 8.625 10.5005ZM16.125 10.5005C16.125 10.7076 15.9571 10.8755 15.75 10.8755C15.5429 10.8755 15.375 10.7076 15.375 10.5005C15.375 10.2934 15.5429 10.1255 15.75 10.1255C15.9571 10.1255 16.125 10.2934 16.125 10.5005Z" stroke="#F2F2F0" stroke-width="1.5" stroke-linecap="round" stroke-linejoin="round"/>
</svg>
