<svg width="24" height="24" viewBox="0 0 24 24" fill="none" xmlns="http://www.w3.org/2000/svg">
<path d="M2.25 3.00049H3.63568C4.14537 3.00049 4.59138 3.34314 4.7227 3.83562L5.1059 5.27258M7.5 14.2505C5.84315 14.2505 4.5 15.5936 4.5 17.2505H20.25M7.5 14.2505H18.7183C19.8394 11.9498 20.8177 9.56684 21.6417 7.11299C16.88 5.89694 11.8905 5.25049 6.75 5.25049C6.20021 5.25049 5.65214 5.25789 5.1059 5.27258M7.5 14.2505L5.1059 5.27258M6 20.2505C6 20.6647 5.66421 21.0005 5.25 21.0005C4.83579 21.0005 4.5 20.6647 4.5 20.2505C4.5 19.8363 4.83579 19.5005 5.25 19.5005C5.66421 19.5005 6 19.8363 6 20.2505ZM18.75 20.2505C18.75 20.6647 18.4142 21.0005 18 21.0005C17.5858 21.0005 17.25 20.6647 17.25 20.2505C17.25 19.8363 17.5858 19.5005 18 19.5005C18.4142 19.5005 18.75 19.8363 18.75 20.2505Z" stroke="#F2F2F0" stroke-width="1.5" stroke-linecap="round" stroke-linejoin="round"/>
</svg>
