<svg width="24" height="24" viewBox="0 0 24 24" fill="none" xmlns="http://www.w3.org/2000/svg">
<path d="M9.34835 14.6521C7.88388 13.1877 7.88388 10.8133 9.34835 9.34884M14.6517 9.34884C16.1161 10.8133 16.1161 13.1877 14.6517 14.6521M7.22703 16.7735C4.59099 14.1374 4.59099 9.86356 7.22703 7.22752M16.773 7.22752C19.409 9.86356 19.409 14.1374 16.773 16.7735M5.10571 18.8948C1.2981 15.0872 1.2981 8.91381 5.10571 5.1062M18.8943 5.1062C22.7019 8.91381 22.7019 15.0872 18.8943 18.8948M12 12.0005H12.0075V12.008H12V12.0005ZM12.375 12.0005C12.375 12.2076 12.2071 12.3755 12 12.3755C11.7929 12.3755 11.625 12.2076 11.625 12.0005C11.625 11.7934 11.7929 11.6255 12 11.6255C12.2071 11.6255 12.375 11.7934 12.375 12.0005Z" stroke="#F2F2F0" stroke-width="1.5" stroke-linecap="round" stroke-linejoin="round"/>
</svg>
