<svg width="24" height="24" viewBox="0 0 24 24" fill="none" xmlns="http://www.w3.org/2000/svg">
<path d="M3 3.00049L11.7348 11.7353M11.7348 11.7353C11.8027 11.6675 11.8964 11.6255 12 11.6255C12.2071 11.6255 12.375 11.7934 12.375 12.0005C12.375 12.104 12.333 12.1978 12.2652 12.2657M11.7348 11.7353L12.2652 12.2657M12.2652 12.2657L21 21.0005M14.6517 9.34884C16.1161 10.8133 16.1161 13.1877 14.6517 14.6521M16.773 7.22752C19.409 9.86356 19.409 14.1374 16.773 16.7735M18.8943 5.1062C22.7019 8.91381 22.7019 15.0872 18.8943 18.8948M9.34835 14.6521C8.75129 14.0551 8.39765 13.3068 8.28743 12.5306M7.22703 16.7735C5.35299 14.8994 4.81126 12.1976 5.60184 9.84497M5.10571 18.8948C2.03824 15.8273 1.44197 11.2244 3.3169 7.56003M12 12.0005H12.0075V12.008H12V12.0005Z" stroke="#F2F2F0" stroke-width="1.5" stroke-linecap="round" stroke-linejoin="round"/>
</svg>
