<svg width="24" height="24" viewBox="0 0 24 24" fill="none" xmlns="http://www.w3.org/2000/svg">
<path d="M9.8132 15.9043L9 18.7505L8.1868 15.9043C7.75968 14.4094 6.59112 13.2408 5.09619 12.8137L2.25 12.0005L5.09619 11.1873C6.59113 10.7602 7.75968 9.59161 8.1868 8.09668L9 5.25049L9.8132 8.09668C10.2403 9.59161 11.4089 10.7602 12.9038 11.1873L15.75 12.0005L12.9038 12.8137C11.4089 13.2408 10.2403 14.4094 9.8132 15.9043Z" stroke="#F2F2F0" stroke-width="1.5" stroke-linecap="round" stroke-linejoin="round"/>
<path d="M18.2589 8.71503L18 9.75049L17.7411 8.71503C17.4388 7.50581 16.4947 6.56166 15.2855 6.25935L14.25 6.00049L15.2855 5.74162C16.4947 5.43932 17.4388 4.49516 17.7411 3.28595L18 2.25049L18.2589 3.28595C18.5612 4.49516 19.5053 5.43932 20.7145 5.74162L21.75 6.00049L20.7145 6.25935C19.5053 6.56166 18.5612 7.50581 18.2589 8.71503Z" stroke="#F2F2F0" stroke-width="1.5" stroke-linecap="round" stroke-linejoin="round"/>
<path d="M16.8942 20.5678L16.5 21.7505L16.1058 20.5678C15.8818 19.8959 15.3546 19.3687 14.6827 19.1447L13.5 18.7505L14.6827 18.3562C15.3546 18.1323 15.8818 17.6051 16.1058 16.9332L16.5 15.7505L16.8942 16.9332C17.1182 17.6051 17.6454 18.1323 18.3173 18.3562L19.5 18.7505L18.3173 19.1447C17.6454 19.3687 17.1182 19.8959 16.8942 20.5678Z" stroke="#F2F2F0" stroke-width="1.5" stroke-linecap="round" stroke-linejoin="round"/>
</svg>
