<svg width="24" height="24" viewBox="0 0 24 24" fill="none" xmlns="http://www.w3.org/2000/svg">
<path d="M16.5 8.25049V6.00049C16.5 4.75785 15.4926 3.75049 14.25 3.75049H6C4.75736 3.75049 3.75 4.75785 3.75 6.00049V14.2505C3.75 15.4931 4.75736 16.5005 6 16.5005H8.25M16.5 8.25049H18C19.2426 8.25049 20.25 9.25785 20.25 10.5005V18.0005C20.25 19.2431 19.2426 20.2505 18 20.2505H10.5C9.25736 20.2505 8.25 19.2431 8.25 18.0005V16.5005M16.5 8.25049H10.5C9.25736 8.25049 8.25 9.25785 8.25 10.5005V16.5005" stroke="#F2F2F0" stroke-width="1.5" stroke-linecap="round" stroke-linejoin="round"/>
</svg>
