<svg width="24" height="24" viewBox="0 0 24 24" fill="none" xmlns="http://www.w3.org/2000/svg">
<path d="M3.75 6.00049C3.75 4.75785 4.75736 3.75049 6 3.75049H8.25C9.49264 3.75049 10.5 4.75785 10.5 6.00049V8.25049C10.5 9.49313 9.49264 10.5005 8.25 10.5005H6C4.75736 10.5005 3.75 9.49313 3.75 8.25049V6.00049Z" stroke="#F2F2F0" stroke-width="1.5" stroke-linecap="round" stroke-linejoin="round"/>
<path d="M3.75 15.7505C3.75 14.5078 4.75736 13.5005 6 13.5005H8.25C9.49264 13.5005 10.5 14.5078 10.5 15.7505V18.0005C10.5 19.2431 9.49264 20.2505 8.25 20.2505H6C4.75736 20.2505 3.75 19.2431 3.75 18.0005V15.7505Z" stroke="#F2F2F0" stroke-width="1.5" stroke-linecap="round" stroke-linejoin="round"/>
<path d="M13.5 6.00049C13.5 4.75785 14.5074 3.75049 15.75 3.75049H18C19.2426 3.75049 20.25 4.75785 20.25 6.00049V8.25049C20.25 9.49313 19.2426 10.5005 18 10.5005H15.75C14.5074 10.5005 13.5 9.49313 13.5 8.25049V6.00049Z" stroke="#F2F2F0" stroke-width="1.5" stroke-linecap="round" stroke-linejoin="round"/>
<path d="M13.5 15.7505C13.5 14.5078 14.5074 13.5005 15.75 13.5005H18C19.2426 13.5005 20.25 14.5078 20.25 15.7505V18.0005C20.25 19.2431 19.2426 20.2505 18 20.2505H15.75C14.5074 20.2505 13.5 19.2431 13.5 18.0005V15.7505Z" stroke="#F2F2F0" stroke-width="1.5" stroke-linecap="round" stroke-linejoin="round"/>
</svg>
