<svg width="24" height="24" viewBox="0 0 24 24" fill="none" xmlns="http://www.w3.org/2000/svg">
<path d="M13.5 16.8755H16.875M16.875 16.8755H20.25M16.875 16.8755V13.5005M16.875 16.8755V20.2505M6 10.5005H8.25C9.49264 10.5005 10.5 9.49313 10.5 8.25049V6.00049C10.5 4.75785 9.49264 3.75049 8.25 3.75049H6C4.75736 3.75049 3.75 4.75785 3.75 6.00049V8.25049C3.75 9.49313 4.75736 10.5005 6 10.5005ZM6 20.2505H8.25C9.49264 20.2505 10.5 19.2431 10.5 18.0005V15.7505C10.5 14.5078 9.49264 13.5005 8.25 13.5005H6C4.75736 13.5005 3.75 14.5078 3.75 15.7505V18.0005C3.75 19.2431 4.75736 20.2505 6 20.2505ZM15.75 10.5005H18C19.2426 10.5005 20.25 9.49313 20.25 8.25049V6.00049C20.25 4.75785 19.2426 3.75049 18 3.75049H15.75C14.5074 3.75049 13.5 4.75785 13.5 6.00049V8.25049C13.5 9.49313 14.5074 10.5005 15.75 10.5005Z" stroke="#F2F2F0" stroke-width="1.5" stroke-linecap="round" stroke-linejoin="round"/>
</svg>
