<svg width="24" height="24" viewBox="0 0 24 24" fill="none" xmlns="http://www.w3.org/2000/svg">
<path d="M11.4807 3.49931C11.6729 3.03734 12.3273 3.03734 12.5195 3.49931L14.6454 8.61077C14.7264 8.80553 14.9096 8.9386 15.1199 8.95546L20.6381 9.39785C21.1369 9.43783 21.3391 10.0602 20.9591 10.3857L16.7548 13.9872C16.5946 14.1244 16.5246 14.3397 16.5736 14.5449L17.858 19.9298C17.9741 20.4165 17.4447 20.8011 17.0177 20.5403L12.2933 17.6547C12.1133 17.5447 11.8869 17.5447 11.7069 17.6547L6.98251 20.5403C6.55551 20.8011 6.02606 20.4165 6.14215 19.9298L7.42664 14.5449C7.47558 14.3397 7.40562 14.1244 7.24543 13.9872L3.04111 10.3857C2.66112 10.0602 2.86335 9.43784 3.36209 9.39785L8.88034 8.95546C9.0906 8.9386 9.27375 8.80553 9.35476 8.61077L11.4807 3.49931Z" stroke="#F2F2F0" stroke-width="1.5" stroke-linecap="round" stroke-linejoin="round"/>
</svg>
