<svg width="24" height="24" viewBox="0 0 24 24" fill="none" xmlns="http://www.w3.org/2000/svg">
<path d="M4.09835 19.9021C5.56282 21.3666 7.93719 21.3666 9.40165 19.9021L15.8033 13.5005M6.75 21.0005C4.67893 21.0005 3 19.3216 3 17.2505V4.12549C3 3.50417 3.50368 3.00049 4.125 3.00049H9.375C9.99632 3.00049 10.5 3.50417 10.5 4.12549V8.19719M6.75 21.0005C8.82107 21.0005 10.5 19.3216 10.5 17.2505V8.19719M6.75 21.0005H19.875C20.4963 21.0005 21 20.4968 21 19.8755V14.6255C21 14.0042 20.4963 13.5005 19.875 13.5005H15.8033M10.5 8.19719L13.3791 5.31806C13.8185 4.87872 14.5308 4.87872 14.9701 5.31806L18.6824 9.03037C19.1218 9.46971 19.1218 10.182 18.6824 10.6214L15.8033 13.5005M6.75 17.2505H6.7575V17.258H6.75V17.2505Z" stroke="#F2F2F0" stroke-width="1.5" stroke-linecap="round" stroke-linejoin="round"/>
</svg>
