<svg width="24" height="24" viewBox="0 0 24 24" fill="none" xmlns="http://www.w3.org/2000/svg">
<path d="M16.5 6.00049V6.75049M16.5 9.75049V10.5005M16.5 13.5005V14.2505M16.5 17.2505V18.0005M7.5 12.7505H12.75M7.5 15.0005H10.5M3.375 5.25049C2.75368 5.25049 2.25 5.75417 2.25 6.37549V9.40184C3.1467 9.92055 3.75 10.8901 3.75 12.0005C3.75 13.1109 3.1467 14.0804 2.25 14.5991V17.6255C2.25 18.2468 2.75368 18.7505 3.375 18.7505H20.625C21.2463 18.7505 21.75 18.2468 21.75 17.6255V14.5991C20.8533 14.0804 20.25 13.1109 20.25 12.0005C20.25 10.8901 20.8533 9.92055 21.75 9.40184V6.37549C21.75 5.75417 21.2463 5.25049 20.625 5.25049H3.375Z" stroke="#F2F2F0" stroke-width="1.5" stroke-linecap="round" stroke-linejoin="round"/>
</svg>
