<svg width="24" height="24" viewBox="0 0 24 24" fill="none" xmlns="http://www.w3.org/2000/svg">
<path d="M17.9815 18.7253C16.6121 16.918 14.4424 15.7505 12 15.7505C9.55761 15.7505 7.38789 16.918 6.01846 18.7253M17.9815 18.7253C19.8335 17.0768 21 14.6749 21 12.0005C21 7.02993 16.9706 3.00049 12 3.00049C7.02944 3.00049 3 7.02993 3 12.0005C3 14.6749 4.1665 17.0768 6.01846 18.7253M17.9815 18.7253C16.3915 20.1406 14.2962 21.0005 12 21.0005C9.70383 21.0005 7.60851 20.1406 6.01846 18.7253M15 9.75049C15 11.4073 13.6569 12.7505 12 12.7505C10.3431 12.7505 9 11.4073 9 9.75049C9 8.09363 10.3431 6.75049 12 6.75049C13.6569 6.75049 15 8.09363 15 9.75049Z" stroke="#F2F2F0" stroke-width="1.5" stroke-linecap="round" stroke-linejoin="round"/>
</svg>
