<svg width="24" height="24" viewBox="0 0 24 24" fill="none" xmlns="http://www.w3.org/2000/svg">
<path d="M17.9999 18.7196C18.2474 18.7401 18.4978 18.7505 18.7506 18.7505C19.7989 18.7505 20.8054 18.5712 21.741 18.2417C21.7473 18.1622 21.7506 18.0817 21.7506 18.0005C21.7506 16.3436 20.4074 15.0005 18.7506 15.0005C18.123 15.0005 17.5403 15.1932 17.0587 15.5227M17.9999 18.7196C18 18.7299 18 18.7402 18 18.7505C18 18.9755 17.9876 19.1976 17.9635 19.4161C16.2067 20.4241 14.1707 21.0005 12 21.0005C9.82933 21.0005 7.79327 20.4241 6.03651 19.4161C6.01238 19.1976 6 18.9755 6 18.7505C6 18.7402 6.00003 18.73 6.00008 18.7197M17.9999 18.7196C17.994 17.5431 17.6494 16.4466 17.0587 15.5227M17.0587 15.5227C15.9928 13.8557 14.1255 12.7505 12 12.7505C9.87479 12.7505 8.00765 13.8554 6.94169 15.5221M6.94169 15.5221C6.46023 15.193 5.87796 15.0005 5.25073 15.0005C3.59388 15.0005 2.25073 16.3436 2.25073 18.0005C2.25073 18.0817 2.25396 18.1622 2.26029 18.2417C3.19593 18.5712 4.2024 18.7505 5.25073 18.7505C5.50307 18.7505 5.75299 18.7401 6.00008 18.7197M6.94169 15.5221C6.35071 16.4462 6.00598 17.5429 6.00008 18.7197M15 6.75049C15 8.40734 13.6569 9.75049 12 9.75049C10.3431 9.75049 9 8.40734 9 6.75049C9 5.09363 10.3431 3.75049 12 3.75049C13.6569 3.75049 15 5.09363 15 6.75049ZM21 9.75049C21 10.9931 19.9926 12.0005 18.75 12.0005C17.5074 12.0005 16.5 10.9931 16.5 9.75049C16.5 8.50785 17.5074 7.50049 18.75 7.50049C19.9926 7.50049 21 8.50785 21 9.75049ZM7.5 9.75049C7.5 10.9931 6.49264 12.0005 5.25 12.0005C4.00736 12.0005 3 10.9931 3 9.75049C3 8.50785 4.00736 7.50049 5.25 7.50049C6.49264 7.50049 7.5 8.50785 7.5 9.75049Z" stroke="#F2F2F0" stroke-width="1.5" stroke-linecap="round" stroke-linejoin="round"/>
</svg>
