<svg width="24" height="24" viewBox="0 0 24 24" fill="none" xmlns="http://www.w3.org/2000/svg">
<path d="M22 10.5005H16M13.75 6.37549C13.75 8.23945 12.239 9.75049 10.375 9.75049C8.51104 9.75049 7 8.23945 7 6.37549C7 4.51153 8.51104 3.00049 10.375 3.00049C12.239 3.00049 13.75 4.51153 13.75 6.37549ZM4.00092 19.2348C4.00031 19.1984 4 19.162 4 19.1255C4 15.6047 6.85418 12.7505 10.375 12.7505C13.8958 12.7505 16.75 15.6047 16.75 19.1255V19.128C16.75 19.1637 16.7497 19.1993 16.7491 19.2348C14.8874 20.3557 12.7065 21.0005 10.375 21.0005C8.04353 21.0005 5.86264 20.3557 4.00092 19.2348Z" stroke="#F2F2F0" stroke-width="1.5" stroke-linecap="round" stroke-linejoin="round"/>
</svg>
