<svg width="24" height="24" viewBox="0 0 24 24" fill="none" xmlns="http://www.w3.org/2000/svg">
<path d="M18 7.50049V10.5005M18 10.5005V13.5005M18 10.5005H21M18 10.5005H15M12.75 6.37549C12.75 8.23945 11.239 9.75049 9.375 9.75049C7.51104 9.75049 6 8.23945 6 6.37549C6 4.51153 7.51104 3.00049 9.375 3.00049C11.239 3.00049 12.75 4.51153 12.75 6.37549ZM3.00092 19.2348C3.00031 19.1984 3 19.162 3 19.1255C3 15.6047 5.85418 12.7505 9.375 12.7505C12.8958 12.7505 15.75 15.6047 15.75 19.1255V19.128C15.75 19.1637 15.7497 19.1993 15.7491 19.2348C13.8874 20.3557 11.7065 21.0005 9.375 21.0005C7.04353 21.0005 4.86264 20.3557 3.00092 19.2348Z" stroke="#F2F2F0" stroke-width="1.5" stroke-linecap="round" stroke-linejoin="round"/>
</svg>
