<svg width="24" height="24" viewBox="0 0 24 24" fill="none" xmlns="http://www.w3.org/2000/svg">
<path d="M15 19.128C15.8329 19.3705 16.7138 19.5005 17.625 19.5005C19.1037 19.5005 20.5025 19.1581 21.7464 18.5483C21.7488 18.491 21.75 18.4334 21.75 18.3755C21.75 16.0973 19.9031 14.2505 17.625 14.2505C16.2069 14.2505 14.956 14.966 14.2136 16.0557M15 19.128V19.1255C15 18.0126 14.7148 16.9663 14.2136 16.0557M15 19.128C15 19.1637 14.9997 19.1993 14.9991 19.2348C13.1374 20.3557 10.9565 21.0005 8.625 21.0005C6.29353 21.0005 4.11264 20.3557 2.25092 19.2348C2.25031 19.1984 2.25 19.162 2.25 19.1255C2.25 15.6047 5.10418 12.7505 8.625 12.7505C11.0329 12.7505 13.129 14.0855 14.2136 16.0557M12 6.37549C12 8.23945 10.489 9.75049 8.625 9.75049C6.76104 9.75049 5.25 8.23945 5.25 6.37549C5.25 4.51153 6.76104 3.00049 8.625 3.00049C10.489 3.00049 12 4.51153 12 6.37549ZM20.25 8.62549C20.25 10.0752 19.0747 11.2505 17.625 11.2505C16.1753 11.2505 15 10.0752 15 8.62549C15 7.17574 16.1753 6.00049 17.625 6.00049C19.0747 6.00049 20.25 7.17574 20.25 8.62549Z" stroke="#F2F2F0" stroke-width="1.5" stroke-linecap="round" stroke-linejoin="round"/>
</svg>
