<svg width="24" height="24" viewBox="0 0 24 24" fill="none" xmlns="http://www.w3.org/2000/svg">
<path d="M7.5 3.75049H6C4.75736 3.75049 3.75 4.75785 3.75 6.00049V7.50049M16.5 3.75049H18C19.2426 3.75049 20.25 4.75785 20.25 6.00049V7.50049M20.25 16.5005V18.0005C20.25 19.2431 19.2426 20.2505 18 20.2505H16.5M7.5 20.2505H6C4.75736 20.2505 3.75 19.2431 3.75 18.0005V16.5005M15 12.0005C15 13.6573 13.6569 15.0005 12 15.0005C10.3431 15.0005 9 13.6573 9 12.0005C9 10.3436 10.3431 9.00049 12 9.00049C13.6569 9.00049 15 10.3436 15 12.0005Z" stroke="#F2F2F0" stroke-width="1.5" stroke-linecap="round" stroke-linejoin="round"/>
</svg>
