<svg width="24" height="24" viewBox="0 0 24 24" fill="none" xmlns="http://www.w3.org/2000/svg">
<path d="M21 12.0005C21 10.7578 19.9926 9.75049 18.75 9.75049H15C15 11.4073 13.6569 12.7505 12 12.7505C10.3431 12.7505 9 11.4073 9 9.75049H5.25C4.00736 9.75049 3 10.7578 3 12.0005M21 12.0005V18.0005C21 19.2431 19.9926 20.2505 18.75 20.2505H5.25C4.00736 20.2505 3 19.2431 3 18.0005V12.0005M21 12.0005V9.00049M3 12.0005V9.00049M21 9.00049C21 7.75785 19.9926 6.75049 18.75 6.75049H5.25C4.00736 6.75049 3 7.75785 3 9.00049M21 9.00049V6.00049C21 4.75785 19.9926 3.75049 18.75 3.75049H5.25C4.00736 3.75049 3 4.75785 3 6.00049V9.00049" stroke="#F2F2F0" stroke-width="1.5" stroke-linecap="round" stroke-linejoin="round"/>
</svg>
