<svg width="24" height="24" viewBox="0 0 24 24" fill="none" xmlns="http://www.w3.org/2000/svg">
<path d="M15.75 10.5005L20.4697 5.78082C20.9421 5.30834 21.75 5.64297 21.75 6.31115V17.6898C21.75 18.358 20.9421 18.6926 20.4697 18.2202L15.75 13.5005M12 18.7505H4.5C3.25736 18.7505 2.25 17.7431 2.25 16.5005V9.00049M15.091 18.0915L16.5 19.5005M15.091 18.0915C15.4982 17.6843 15.75 17.1218 15.75 16.5005V7.50049C15.75 6.25785 14.7426 5.25049 13.5 5.25049H4.5C3.87868 5.25049 3.31618 5.50233 2.90901 5.9095M15.091 18.0915L2.90901 5.9095M1.5 4.50049L2.90901 5.9095" stroke="#F2F2F0" stroke-width="1.5" stroke-linecap="round" stroke-linejoin="round"/>
</svg>
