<svg width="24" height="24" viewBox="0 0 24 24" fill="none" xmlns="http://www.w3.org/2000/svg">
<path d="M21.75 6.75049C21.75 9.23577 19.7353 11.2505 17.25 11.2505C17.1206 11.2505 16.9925 11.245 16.8659 11.2343C15.7904 11.1434 14.6016 11.3057 13.9155 12.1388L6.76432 20.8224C6.28037 21.41 5.55897 21.7505 4.79769 21.7505C3.39064 21.7505 2.25 20.6099 2.25 19.2028C2.25 18.4415 2.59044 17.7201 3.1781 17.2362L11.8617 10.085C12.6948 9.3989 12.8571 8.21005 12.7662 7.1346C12.7555 7.00798 12.75 6.87987 12.75 6.75049C12.75 4.26521 14.7647 2.25049 17.25 2.25049C17.9103 2.25049 18.5375 2.39272 19.1024 2.64822L15.8262 5.92446C16.0823 7.04012 16.9605 7.91834 18.0762 8.17446L21.3524 4.89828C21.6078 5.46316 21.75 6.09022 21.75 6.75049Z" stroke="#F2F2F0" stroke-width="1.5" stroke-linecap="round" stroke-linejoin="round"/>
<path d="M4.86723 19.1255H4.87473V19.133H4.86723V19.1255Z" stroke="#F2F2F0" stroke-width="1.5" stroke-linecap="round" stroke-linejoin="round"/>
</svg>
