<svg width="24" height="24" viewBox="0 0 24 24" fill="none" xmlns="http://www.w3.org/2000/svg">
<path d="M11.4194 15.1698L17.25 21.0005C18.2855 22.036 19.9645 22.036 21 21.0005C22.0355 19.965 22.0355 18.286 21 17.2505L15.1233 11.3738M11.4194 15.1698L13.9155 12.1388C14.2315 11.7551 14.6542 11.5137 15.1233 11.3738M11.4194 15.1698L6.76432 20.8224C6.28037 21.41 5.55897 21.7505 4.79768 21.7505C3.39064 21.7505 2.25 20.6098 2.25 19.2028C2.25 18.4415 2.59044 17.7201 3.1781 17.2362L10.0146 11.6061M15.1233 11.3738C15.6727 11.2099 16.2858 11.1853 16.8659 11.2343C16.9925 11.245 17.1206 11.2505 17.25 11.2505C19.7353 11.2505 21.75 9.23577 21.75 6.75049C21.75 6.09022 21.6078 5.46316 21.3523 4.89828L18.0762 8.17446C16.9605 7.91834 16.0823 7.04012 15.8262 5.92446L19.1024 2.64822C18.5375 2.39272 17.9103 2.25049 17.25 2.25049C14.7647 2.25049 12.75 4.26521 12.75 6.75049C12.75 6.87987 12.7555 7.00798 12.7662 7.1346C12.8571 8.21005 12.6948 9.3989 11.8617 10.085L11.7596 10.1691M10.0146 11.6061L5.90901 7.50049H4.5L2.25 3.75049L3.75 2.25049L7.5 4.50049V5.9095L11.7596 10.1691M10.0146 11.6061L11.7596 10.1691M18.375 18.3755L15.75 15.7505M4.86723 19.1255H4.87473V19.133H4.86723V19.1255Z" stroke="#F2F2F0" stroke-width="1.5" stroke-linecap="round" stroke-linejoin="round"/>
</svg>
