<svg width="24" height="24" viewBox="0 0 24 24" fill="none" xmlns="http://www.w3.org/2000/svg">
<path d="M11.35 3.83649C11.285 4.04649 11.25 4.26949 11.25 4.50049C11.25 4.91449 11.586 5.25049 12 5.25049H16.5C16.6989 5.25049 16.8897 5.17147 17.0303 5.03082C17.171 4.89017 17.25 4.6994 17.25 4.50049C17.2501 4.2754 17.2164 4.05157 17.15 3.83649M11.35 3.83649C11.492 3.37719 11.7774 2.97542 12.1643 2.69003C12.5511 2.40463 13.0192 2.2506 13.5 2.25049H15C16.012 2.25049 16.867 2.91849 17.15 3.83649M11.35 3.83649C10.974 3.85949 10.6 3.88649 10.226 3.91649C9.095 4.01049 8.25 4.97349 8.25 6.10849V8.25049M17.15 3.83649C17.526 3.85949 17.9 3.88649 18.274 3.91649C19.405 4.01049 20.25 4.97349 20.25 6.10849V16.5005C20.25 17.0972 20.0129 17.6695 19.591 18.0915C19.169 18.5134 18.5967 18.7505 18 18.7505H15.75M8.25 8.25049H4.875C4.254 8.25049 3.75 8.75449 3.75 9.37549V20.6255C3.75 21.2465 4.254 21.7505 4.875 21.7505H14.625C15.246 21.7505 15.75 21.2465 15.75 20.6255V18.7505M8.25 8.25049H14.625C15.246 8.25049 15.75 8.75449 15.75 9.37549V18.7505M7.5 15.7505L9 17.2505L12 13.5005" stroke="white" stroke-width="1.5" stroke-linecap="round" stroke-linejoin="round"/>
</svg>
