<svg width="24" height="24" viewBox="0 0 24 24" fill="none" xmlns="http://www.w3.org/2000/svg">
<path d="M3.75 7.50049L20.25 3.37549M12 6.75049C9.29246 6.75049 6.63727 6.97466 4.05199 7.40546C2.99912 7.58091 2.25 8.50712 2.25 9.57451V18.7505C2.25 19.9931 3.25736 21.0005 4.5 21.0005H19.5C20.7426 21.0005 21.75 19.9931 21.75 18.7505V9.57451C21.75 8.50712 21.0009 7.58091 19.948 7.40546C17.3627 6.97466 14.7075 6.75049 12 6.75049ZM10.3169 13.1936L10.3116 13.1989L10.3063 13.1936L10.3116 13.1883L10.3169 13.1936ZM10.3118 15.32L10.3065 15.3147L10.3118 15.3094L10.3171 15.3147L10.3118 15.32ZM8.1958 15.3149L8.1905 15.3202L8.18519 15.3149L8.1905 15.3096L8.1958 15.3149ZM8.19067 13.1987L8.18537 13.1934L8.19067 13.1881L8.19598 13.1934L8.19067 13.1987ZM9.25488 10.5005V10.508H9.24738V10.5005H9.25488ZM12.5039 12.3806L12.4974 12.3844L12.4937 12.3779L12.5002 12.3741L12.5039 12.3806ZM11.1248 17.5068L11.121 17.5003L11.1275 17.4966L11.1313 17.5031L11.1248 17.5068ZM11.1313 11.0053L11.1276 11.0118L11.1211 11.0081L11.1249 11.0016L11.1313 11.0053ZM12.5002 16.1343L12.4937 16.1305L12.4975 16.124L12.504 16.1278L12.5002 16.1343ZM13.0049 14.2578H12.9974V14.2503H13.0049V14.2578ZM9.25488 18.0005V18.008H9.24738V18.0005H9.25488ZM6.00879 16.1306L6.00229 16.1344L5.99854 16.1279L6.00504 16.1241L6.00879 16.1306ZM7.37476 11.0117L7.37101 11.0052L7.3775 11.0015L7.38125 11.008L7.37476 11.0117ZM7.38135 17.5004L7.3776 17.5069L7.3711 17.5032L7.37485 17.4967L7.38135 17.5004ZM6.00513 12.3843L5.99863 12.3805L6.00238 12.374L6.00888 12.3778L6.00513 12.3843ZM5.50488 14.2578H5.49738V14.2503H5.50488V14.2578ZM17.25 12.7505C16.8358 12.7505 16.5 12.4147 16.5 12.0005C16.5 11.5863 16.8358 11.2505 17.25 11.2505C17.6642 11.2505 18 11.5863 18 12.0005C18 12.4147 17.6642 12.7505 17.25 12.7505ZM17.25 17.2505C16.8358 17.2505 16.5 16.9147 16.5 16.5005C16.5 16.0863 16.8358 15.7505 17.25 15.7505C17.6642 15.7505 18 16.0863 18 16.5005C18 16.9147 17.6642 17.2505 17.25 17.2505Z" stroke="#F2F2F0" stroke-width="1.5" stroke-linecap="round" stroke-linejoin="round"/>
</svg>
