<svg width="24" height="24" viewBox="0 0 24 24" fill="none" xmlns="http://www.w3.org/2000/svg">
<path d="M14.8569 17.0822C16.7514 16.8575 18.5783 16.4121 20.3111 15.7724C18.8743 14.1775 17.9998 12.0661 17.9998 9.75049V9.04967C17.9999 9.03329 18 9.0169 18 9.00049C18 5.68678 15.3137 3.00049 12 3.00049C8.68629 3.00049 6 5.68678 6 9.00049L5.9998 9.75049C5.9998 12.0661 5.12527 14.1775 3.68848 15.7724C5.4214 16.4121 7.24843 16.8575 9.14314 17.0822M14.8569 17.0822C13.92 17.1933 12.9666 17.2505 11.9998 17.2505C11.0332 17.2505 10.0799 17.1933 9.14314 17.0822M14.8569 17.0822C14.9498 17.3716 15 17.6802 15 18.0005C15 19.6573 13.6569 21.0005 12 21.0005C10.3431 21.0005 9 19.6573 9 18.0005C9 17.6802 9.05019 17.3716 9.14314 17.0822" stroke="#F2F2F0" stroke-width="1.5" stroke-linecap="round" stroke-linejoin="round"/>
</svg>
