<svg width="24" height="24" viewBox="0 0 24 24" fill="none" xmlns="http://www.w3.org/2000/svg">
<path d="M14.8569 17.0822C16.7515 16.8575 18.5784 16.4121 20.3112 15.7724C18.8744 14.1775 17.9999 12.0661 17.9999 9.75049V9.04967C18 9.03329 18.0001 9.0169 18.0001 9.00049C18.0001 5.68678 15.3138 3.00049 12.0001 3.00049C8.68637 3.00049 6.00007 5.68678 6.00007 9.00049L5.99988 9.75049C5.99988 12.0661 5.12535 14.1775 3.68855 15.7724C5.42148 16.4121 7.24851 16.8575 9.14321 17.0822M14.8569 17.0822C13.9201 17.1933 12.9666 17.2505 11.9999 17.2505C11.0332 17.2505 10.08 17.1933 9.14321 17.0822M14.8569 17.0822C14.9499 17.3716 15.0001 17.6802 15.0001 18.0005C15.0001 19.6573 13.6569 21.0005 12.0001 21.0005C10.3432 21.0005 9.00007 19.6573 9.00007 18.0005C9.00007 17.6802 9.05026 17.3716 9.14321 17.0822M3.12451 7.50049C3.41179 5.78813 4.18261 4.23973 5.29175 3.00049M18.7084 3.00049C19.8175 4.23973 20.5884 5.78813 20.8756 7.50049" stroke="#F2F2F0" stroke-width="1.5" stroke-linecap="round" stroke-linejoin="round"/>
</svg>
