<svg width="24" height="24" viewBox="0 0 24 24" fill="none" xmlns="http://www.w3.org/2000/svg">
<path d="M9.14314 17.0822C10.0799 17.1933 11.0332 17.2505 11.9998 17.2505C12.3306 17.2505 12.6599 17.2438 12.9874 17.2305M9.14314 17.0822C7.24843 16.8575 5.4214 16.4121 3.68848 15.7724C5.02539 14.2884 5.87549 12.3572 5.98723 10.2304M9.14314 17.0822C9.05019 17.3716 9 17.6802 9 18.0005C9 19.6573 10.3431 21.0005 12 21.0005C13.2864 21.0005 14.3837 20.1908 14.8101 19.0532M16.7749 16.7754L21 21.0005M16.7749 16.7754C17.9894 16.5303 19.1706 16.1934 20.3111 15.7724C18.8743 14.1775 17.9998 12.0661 17.9998 9.75049V9.04967L18 9.00049C18 5.68678 15.3137 3.00049 12 3.00049C9.5667 3.00049 7.47171 4.44898 6.53026 6.53075M16.7749 16.7754L6.53026 6.53075M3 3.00049L6.53026 6.53075" stroke="#F2F2F0" stroke-width="1.5" stroke-linecap="round" stroke-linejoin="round"/>
</svg>
