<svg width="24" height="24" viewBox="0 0 24 24" fill="none" xmlns="http://www.w3.org/2000/svg">
<path d="M20.25 14.1504V18.4004C20.25 19.4949 19.4631 20.4364 18.3782 20.5804C16.2915 20.8575 14.1624 21.0005 12 21.0005C9.83757 21.0005 7.70854 20.8575 5.62185 20.5804C4.5369 20.4364 3.75 19.4949 3.75 18.4004V14.1504M20.25 14.1504C20.7219 13.7481 21 13.1394 21 12.4894V8.70618C21 7.62524 20.2321 6.6913 19.1631 6.53135C18.0377 6.36296 16.8995 6.23364 15.75 6.14481M20.25 14.1504C20.0564 14.3154 19.8302 14.4457 19.5771 14.5299C17.1953 15.3217 14.6477 15.7505 12 15.7505C9.35229 15.7505 6.80469 15.3217 4.42289 14.5299C4.16984 14.4457 3.94361 14.3154 3.75 14.1504M3.75 14.1504C3.27808 13.7481 3 13.1393 3 12.4894V8.70618C3 7.62524 3.7679 6.69131 4.83694 6.53135C5.96233 6.36296 7.10049 6.23364 8.25 6.14481M15.75 6.14481V5.25049C15.75 4.00785 14.7426 3.00049 13.5 3.00049H10.5C9.25736 3.00049 8.25 4.00785 8.25 5.25049V6.14481M15.75 6.14481C14.5126 6.04919 13.262 6.00049 12 6.00049C10.738 6.00049 9.48744 6.04919 8.25 6.14481M12 12.7505H12.0075V12.758H12V12.7505Z" stroke="#F2F2F0" stroke-width="1.5" stroke-linecap="round" stroke-linejoin="round"/>
</svg>
