<svg width="24" height="24" viewBox="0 0 24 24" fill="none" xmlns="http://www.w3.org/2000/svg">
<path d="M11.9997 12.7505C13.1482 12.7505 14.2778 12.8312 15.3833 12.9871C16.4196 13.1334 17.2493 13.9539 17.2493 15.0005C17.2493 18.7284 14.8988 21.7505 11.9993 21.7505C9.09977 21.7505 6.74927 18.7284 6.74927 15.0005C6.74927 13.954 7.57879 13.1336 8.61502 12.9873C9.72081 12.8312 10.8508 12.7505 11.9997 12.7505ZM11.9997 12.7505C14.8825 12.7505 17.6469 13.2588 20.2075 14.1906C20.083 16.295 19.6873 18.3264 19.0549 20.2505M11.9997 12.7505C9.11689 12.7505 6.35312 13.2587 3.79248 14.1906C3.91702 16.295 4.31272 18.3264 4.94512 20.2505M11.9997 12.7505C13.2423 12.7505 14.2498 11.7431 14.2498 10.5005C14.2498 10.4657 14.249 10.431 14.2475 10.3966M11.9997 12.7505C10.757 12.7505 9.74979 11.7431 9.74979 10.5005C9.74979 10.4657 9.75058 10.4311 9.75214 10.3966M12.0002 8.25049C12.995 8.25049 13.971 8.16978 14.922 8.01455C15.3246 7.94884 15.6628 7.65672 15.7168 7.25245C15.7388 7.08825 15.7502 6.92069 15.7502 6.75049C15.7502 6.11893 15.594 5.52384 15.3183 5.0017M12.0002 8.25049C11.0053 8.25049 10.0293 8.16978 9.0783 8.01455C8.67576 7.94884 8.33754 7.65672 8.28346 7.25245C8.26149 7.08825 8.25015 6.92069 8.25015 6.75049C8.25015 6.11799 8.40675 5.52206 8.68327 4.99936M12.0002 8.25049C10.7923 8.25049 9.80641 9.2022 9.75214 10.3966M12.0002 8.25049C13.208 8.25049 14.1932 9.2022 14.2475 10.3966M8.68327 4.99936C8.25654 4.71545 7.86824 4.37836 7.52783 3.99755C7.59799 3.36664 7.7986 2.77509 8.10206 2.25049M8.68327 4.99936C9.31221 3.81053 10.5616 3.00049 12.0002 3.00049C13.4397 3.00049 14.6897 3.81159 15.3183 5.0017M15.3183 5.0017C15.7445 4.71853 16.1325 4.38233 16.4728 4.0025C16.4031 3.36973 16.2023 2.77646 15.898 2.25049M4.92097 6.00049C4.71594 7.08135 4.58339 8.18787 4.52856 9.31479C6.19671 9.86073 7.94538 10.2288 9.75214 10.3966M19.0786 6.00049C19.2836 7.08135 19.4162 8.18786 19.471 9.31479C17.8029 9.86073 16.0542 10.2288 14.2475 10.3966" stroke="#F2F2F0" stroke-width="1.5" stroke-linecap="round" stroke-linejoin="round"/>
</svg>
