<svg width="24" height="24" viewBox="0 0 24 24" fill="none" xmlns="http://www.w3.org/2000/svg">
<path d="M2.25 21.0005H21.75M3.75 3.00049V21.0005M14.25 3.00049V21.0005M20.25 7.50049V21.0005M6.75 6.75049H7.5M6.75 9.75049H7.5M6.75 12.7505H7.5M10.5 6.75049H11.25M10.5 9.75049H11.25M10.5 12.7505H11.25M6.75 21.0005V17.6255C6.75 17.0042 7.25368 16.5005 7.875 16.5005H10.125C10.7463 16.5005 11.25 17.0042 11.25 17.6255V21.0005M3 3.00049H15M14.25 7.50049H21M17.25 11.2505H17.2575V11.258H17.25V11.2505ZM17.25 14.2505H17.2575V14.258H17.25V14.2505ZM17.25 17.2505H17.2575V17.258H17.25V17.2505Z" stroke="#F2F2F0" stroke-width="1.5" stroke-linecap="round" stroke-linejoin="round"/>
</svg>
