<svg width="24" height="24" viewBox="0 0 24 24" fill="none" xmlns="http://www.w3.org/2000/svg">
<path d="M15.75 15.7505V18.0005M8.25 11.2505H8.2575V11.258H8.25V11.2505ZM8.25 13.5005H8.2575V13.508H8.25V13.5005ZM8.25 15.7505H8.2575V15.758H8.25V15.7505ZM8.25 18.0005H8.2575V18.008H8.25V18.0005ZM10.7476 11.2505H10.7551V11.258H10.7476V11.2505ZM10.7476 13.5005H10.7551V13.508H10.7476V13.5005ZM10.7476 15.7505H10.7551V15.758H10.7476V15.7505ZM10.7476 18.0005H10.7551V18.008H10.7476V18.0005ZM13.2524 11.2505H13.2599V11.258H13.2524V11.2505ZM13.2524 13.5005H13.2599V13.508H13.2524V13.5005ZM13.2524 15.7505H13.2599V15.758H13.2524V15.7505ZM13.2524 18.0005H13.2599V18.008H13.2524V18.0005ZM15.75 11.2505H15.7575V11.258H15.75V11.2505ZM15.75 13.5005H15.7575V13.508H15.75V13.5005ZM8.25 6.00049H15.75V8.25049H8.25V6.00049ZM12 2.25049C10.108 2.25049 8.24156 2.35995 6.40668 2.5729C5.30608 2.70063 4.5 3.64949 4.5 4.75748V19.5005C4.5 20.7431 5.50736 21.7505 6.75 21.7505H17.25C18.4926 21.7505 19.5 20.7431 19.5 19.5005V4.75748C19.5 3.64949 18.6939 2.70063 17.5933 2.5729C15.7584 2.35995 13.892 2.25049 12 2.25049Z" stroke="#F2F2F0" stroke-width="1.5" stroke-linecap="round" stroke-linejoin="round"/>
</svg>
