<svg width="24" height="24" viewBox="0 0 24 24" fill="none" xmlns="http://www.w3.org/2000/svg">
<path d="M6.75 3.00049V5.25049M17.25 3.00049V5.25049M3 18.7505V7.50049C3 6.25785 4.00736 5.25049 5.25 5.25049H18.75C19.9926 5.25049 21 6.25785 21 7.50049V18.7505M3 18.7505C3 19.9931 4.00736 21.0005 5.25 21.0005H18.75C19.9926 21.0005 21 19.9931 21 18.7505M3 18.7505V11.2505C3 10.0078 4.00736 9.00049 5.25 9.00049H18.75C19.9926 9.00049 21 10.0078 21 11.2505V18.7505M12 12.7505H12.0075V12.758H12V12.7505ZM12 15.0005H12.0075V15.008H12V15.0005ZM12 17.2505H12.0075V17.258H12V17.2505ZM9.75 15.0005H9.7575V15.008H9.75V15.0005ZM9.75 17.2505H9.7575V17.258H9.75V17.2505ZM7.5 15.0005H7.5075V15.008H7.5V15.0005ZM7.5 17.2505H7.5075V17.258H7.5V17.2505ZM14.25 12.7505H14.2575V12.758H14.25V12.7505ZM14.25 15.0005H14.2575V15.008H14.25V15.0005ZM14.25 17.2505H14.2575V17.258H14.25V17.2505ZM16.5 12.7505H16.5075V12.758H16.5V12.7505ZM16.5 15.0005H16.5075V15.008H16.5V15.0005Z" stroke="#F2F2F0" stroke-width="1.5" stroke-linecap="round" stroke-linejoin="round"/>
</svg>
