<svg width="24" height="24" viewBox="0 0 24 24" fill="none" xmlns="http://www.w3.org/2000/svg">
<path d="M6.82689 6.17539C6.46581 6.75402 5.86127 7.13446 5.186 7.23043C4.80655 7.28435 4.42853 7.34271 4.05199 7.40546C2.99912 7.5809 2.25 8.50712 2.25 9.57451V18.0005C2.25 19.2431 3.25736 20.2505 4.5 20.2505H19.5C20.7426 20.2505 21.75 19.2431 21.75 18.0005V9.57452C21.75 8.50712 21.0009 7.58091 19.948 7.40547C19.5715 7.34272 19.1934 7.28436 18.814 7.23044C18.1387 7.13447 17.5342 6.75403 17.1731 6.17539L16.3519 4.85938C15.9734 4.25285 15.3294 3.85887 14.6155 3.82054C13.7496 3.77404 12.8775 3.75049 12 3.75049C11.1225 3.75049 10.2504 3.77404 9.3845 3.82054C8.6706 3.85887 8.02658 4.25285 7.64809 4.85938L6.82689 6.17539Z" stroke="#F2F2F0" stroke-width="1.5" stroke-linecap="round" stroke-linejoin="round"/>
<path d="M16.5 12.7505C16.5 15.2358 14.4853 17.2505 12 17.2505C9.51472 17.2505 7.5 15.2358 7.5 12.7505C7.5 10.2652 9.51472 8.25049 12 8.25049C14.4853 8.25049 16.5 10.2652 16.5 12.7505Z" stroke="#F2F2F0" stroke-width="1.5" stroke-linecap="round" stroke-linejoin="round"/>
<path d="M18.75 10.5005H18.7575V10.508H18.75V10.5005Z" stroke="#F2F2F0" stroke-width="1.5" stroke-linecap="round" stroke-linejoin="round"/>
</svg>
