<svg width="24" height="24" viewBox="0 0 24 24" fill="none" xmlns="http://www.w3.org/2000/svg">
<path d="M3 13.1255C3 12.5042 3.50368 12.0005 4.125 12.0005H6.375C6.99632 12.0005 7.5 12.5042 7.5 13.1255V19.8755C7.5 20.4968 6.99632 21.0005 6.375 21.0005H4.125C3.50368 21.0005 3 20.4968 3 19.8755V13.1255Z" stroke="#F2F2F0" stroke-width="1.5" stroke-linecap="round" stroke-linejoin="round"/>
<path d="M9.75 8.62549C9.75 8.00417 10.2537 7.50049 10.875 7.50049H13.125C13.7463 7.50049 14.25 8.00417 14.25 8.62549V19.8755C14.25 20.4968 13.7463 21.0005 13.125 21.0005H10.875C10.2537 21.0005 9.75 20.4968 9.75 19.8755V8.62549Z" stroke="#F2F2F0" stroke-width="1.5" stroke-linecap="round" stroke-linejoin="round"/>
<path d="M16.5 4.12549C16.5 3.50417 17.0037 3.00049 17.625 3.00049H19.875C20.4963 3.00049 21 3.50417 21 4.12549V19.8755C21 20.4968 20.4963 21.0005 19.875 21.0005H17.625C17.0037 21.0005 16.5 20.4968 16.5 19.8755V4.12549Z" stroke="#F2F2F0" stroke-width="1.5" stroke-linecap="round" stroke-linejoin="round"/>
</svg>
