<svg width="24" height="24" viewBox="0 0 24 24" fill="none" xmlns="http://www.w3.org/2000/svg">
<path d="M7.5 8.25049H16.5M7.5 11.2505H12M2.25 12.7598C2.25 14.3609 3.37341 15.7545 4.95746 15.9874C6.08596 16.1534 7.22724 16.28 8.37985 16.366C8.73004 16.3921 9.05017 16.5757 9.24496 16.8679L12 21.0005L14.755 16.868C14.9498 16.5758 15.2699 16.3922 15.6201 16.3661C16.7727 16.2801 17.914 16.1535 19.0425 15.9876C20.6266 15.7547 21.75 14.361 21.75 12.7599V6.74105C21.75 5.13995 20.6266 3.74631 19.0425 3.51342C16.744 3.1755 14.3926 3.00049 12.0003 3.00049C9.60776 3.00049 7.25612 3.17553 4.95747 3.51351C3.37342 3.74642 2.25 5.14005 2.25 6.74113V12.7598Z" stroke="#F2F2F0" stroke-width="1.5" stroke-linecap="round" stroke-linejoin="round"/>
</svg>
