<svg width="24" height="24" viewBox="0 0 24 24" fill="none" xmlns="http://www.w3.org/2000/svg">
<path d="M2.25 12.7598C2.25 14.3609 3.37341 15.7545 4.95746 15.9874C6.04357 16.1471 7.14151 16.2705 8.25 16.3561V21.0005L12.326 16.9244C12.6017 16.6488 12.9738 16.4924 13.3635 16.4815C15.2869 16.4279 17.1821 16.2611 19.0425 15.9876C20.6266 15.7547 21.75 14.361 21.75 12.7599V6.74105C21.75 5.13995 20.6266 3.74631 19.0425 3.51342C16.744 3.1755 14.3926 3.00049 12.0003 3.00049C9.60776 3.00049 7.25612 3.17553 4.95747 3.51351C3.37342 3.74642 2.25 5.14005 2.25 6.74113V12.7598Z" stroke="#F2F2F0" stroke-width="1.5" stroke-linecap="round" stroke-linejoin="round"/>
</svg>
