<svg width="24" height="24" viewBox="0 0 24 24" fill="none" xmlns="http://www.w3.org/2000/svg">
<path d="M8.625 9.75049C8.625 9.9576 8.45711 10.1255 8.25 10.1255C8.04289 10.1255 7.875 9.9576 7.875 9.75049C7.875 9.54338 8.04289 9.37549 8.25 9.37549C8.45711 9.37549 8.625 9.54338 8.625 9.75049ZM8.625 9.75049H8.25M12.375 9.75049C12.375 9.9576 12.2071 10.1255 12 10.1255C11.7929 10.1255 11.625 9.9576 11.625 9.75049C11.625 9.54338 11.7929 9.37549 12 9.37549C12.2071 9.37549 12.375 9.54338 12.375 9.75049ZM12.375 9.75049H12M16.125 9.75049C16.125 9.9576 15.9571 10.1255 15.75 10.1255C15.5429 10.1255 15.375 9.9576 15.375 9.75049C15.375 9.54338 15.5429 9.37549 15.75 9.37549C15.9571 9.37549 16.125 9.54338 16.125 9.75049ZM16.125 9.75049H15.75M2.25 12.7598C2.25 14.3609 3.37341 15.7545 4.95746 15.9874C6.04357 16.1471 7.14151 16.2705 8.25 16.3561V21.0005L12.4335 16.817C12.6402 16.6103 12.9193 16.4927 13.2116 16.4855C15.1872 16.4366 17.1331 16.2683 19.0425 15.9876C20.6266 15.7547 21.75 14.361 21.75 12.7599V6.74104C21.75 5.13995 20.6266 3.74631 19.0425 3.51342C16.744 3.1755 14.3926 3.00049 12.0003 3.00049C9.60776 3.00049 7.25612 3.17553 4.95747 3.51351C3.37342 3.74642 2.25 5.14005 2.25 6.74113V12.7598Z" stroke="#F2F2F0" stroke-width="1.5" stroke-linecap="round" stroke-linejoin="round"/>
</svg>
