<svg width="24" height="24" viewBox="0 0 24 24" fill="none" xmlns="http://www.w3.org/2000/svg">
<path d="M20.25 8.51152C21.1341 8.79597 21.75 9.63969 21.75 10.6087V14.8943C21.75 16.0309 20.9026 16.9948 19.7697 17.0872C19.4308 17.1149 19.0909 17.139 18.75 17.1597V20.2505L15.75 17.2505C14.3963 17.2505 13.0556 17.1953 11.7302 17.0871C11.4319 17.0628 11.1534 16.978 10.9049 16.8455M20.25 8.51152C20.0986 8.46281 19.9393 8.43049 19.7739 8.41677C18.4472 8.30665 17.1051 8.25049 15.75 8.25049C14.3948 8.25049 13.0528 8.30665 11.7261 8.41676C10.595 8.51064 9.75 9.47372 9.75 10.6087V14.8942C9.75 15.7315 10.2099 16.475 10.9049 16.8455M20.25 8.51152V6.6378C20.25 5.01638 19.0983 3.61113 17.4903 3.4024C15.4478 3.13725 13.365 3.00049 11.2503 3.00049C9.13533 3.00049 7.05233 3.13727 5.00963 3.40248C3.40173 3.61123 2.25 5.01647 2.25 6.63787V12.8631C2.25 14.4845 3.40173 15.8898 5.00964 16.0985C5.58661 16.1734 6.16679 16.2381 6.75 16.2923V21.0005L10.9049 16.8455" stroke="#F2F2F0" stroke-width="1.5" stroke-linecap="round" stroke-linejoin="round"/>
</svg>
