<svg width="24" height="24" viewBox="0 0 24 24" fill="none" xmlns="http://www.w3.org/2000/svg">
<path d="M12 20.2505C16.9706 20.2505 21 16.5568 21 12.0005C21 7.44414 16.9706 3.75049 12 3.75049C7.02944 3.75049 3 7.44414 3 12.0005C3 14.1041 3.85891 16.0238 5.2728 17.4811C5.70538 17.9269 6.01357 18.5197 5.85933 19.1214C5.68829 19.7888 5.368 20.3963 4.93579 20.9065C5.0918 20.9344 5.25 20.9563 5.40967 20.9718C5.60376 20.9908 5.80078 21.0005 6 21.0005C7.28201 21.0005 8.47016 20.5984 9.44517 19.9134C10.2551 20.1327 11.1125 20.2505 12 20.2505Z" stroke="#F2F2F0" stroke-width="1.5" stroke-linecap="round" stroke-linejoin="round"/>
</svg>
