<svg width="24" height="24" viewBox="0 0 24 24" fill="none" xmlns="http://www.w3.org/2000/svg">
<path d="M8.625 12.0005C8.625 12.2076 8.45711 12.3755 8.25 12.3755C8.04289 12.3755 7.875 12.2076 7.875 12.0005C7.875 11.7934 8.04289 11.6255 8.25 11.6255C8.45711 11.6255 8.625 11.7934 8.625 12.0005ZM8.625 12.0005H8.25M12.375 12.0005C12.375 12.2076 12.2071 12.3755 12 12.3755C11.7929 12.3755 11.625 12.2076 11.625 12.0005C11.625 11.7934 11.7929 11.6255 12 11.6255C12.2071 11.6255 12.375 11.7934 12.375 12.0005ZM12.375 12.0005H12M16.125 12.0005C16.125 12.2076 15.9571 12.3755 15.75 12.3755C15.5429 12.3755 15.375 12.2076 15.375 12.0005C15.375 11.7934 15.5429 11.6255 15.75 11.6255C15.9571 11.6255 16.125 11.7934 16.125 12.0005ZM16.125 12.0005H15.75M21 12.0005C21 16.5568 16.9706 20.2505 12 20.2505C11.1125 20.2505 10.2551 20.1327 9.44517 19.9134C8.47016 20.5984 7.28201 21.0005 6 21.0005C5.80078 21.0005 5.60376 20.9908 5.40967 20.9718C5.25 20.9563 5.0918 20.9344 4.93579 20.9065C5.41932 20.3358 5.76277 19.6431 5.91389 18.8813C6.00454 18.4243 5.7807 17.9804 5.44684 17.6554C3.9297 16.1786 3 14.1891 3 12.0005C3 7.44414 7.02944 3.75049 12 3.75049C16.9706 3.75049 21 7.44414 21 12.0005Z" stroke="#F2F2F0" stroke-width="1.5" stroke-linecap="round" stroke-linejoin="round"/>
</svg>
