<svg width="24" height="24" viewBox="0 0 24 24" fill="none" xmlns="http://www.w3.org/2000/svg">
<path d="M20.25 6.37549C20.25 8.65366 16.5563 10.5005 12 10.5005C7.44365 10.5005 3.75 8.65366 3.75 6.37549M20.25 6.37549C20.25 4.09731 16.5563 2.25049 12 2.25049C7.44365 2.25049 3.75 4.09731 3.75 6.37549M20.25 6.37549V17.6255C20.25 19.9037 16.5563 21.7505 12 21.7505C7.44365 21.7505 3.75 19.9037 3.75 17.6255V6.37549M20.25 6.37549V10.1255M3.75 6.37549V10.1255M20.25 10.1255V13.8755C20.25 16.1537 16.5563 18.0005 12 18.0005C7.44365 18.0005 3.75 16.1537 3.75 13.8755V10.1255M20.25 10.1255C20.25 12.4037 16.5563 14.2505 12 14.2505C7.44365 14.2505 3.75 12.4037 3.75 10.1255" stroke="#F2F2F0" stroke-width="1.5" stroke-linecap="round" stroke-linejoin="round"/>
</svg>
