<svg width="24" height="24" viewBox="0 0 24 24" fill="none" xmlns="http://www.w3.org/2000/svg">
<path d="M8.25 7.50049V6.10871C8.25 4.97373 9.09499 4.01064 10.2261 3.91676C10.5994 3.88578 10.9739 3.85907 11.3495 3.83668M15.75 18.0005H18C19.2426 18.0005 20.25 16.9931 20.25 15.7505V6.10871C20.25 4.97372 19.405 4.01064 18.2739 3.91676C17.9006 3.88578 17.5261 3.85907 17.1505 3.83668M15.75 18.7505V16.8755C15.75 15.0115 14.239 13.5005 12.375 13.5005H10.875C10.2537 13.5005 9.75 12.9968 9.75 12.3755V10.8755C9.75 9.01153 8.23896 7.50049 6.375 7.50049H5.25M17.1505 3.83668C16.8672 2.91806 16.0116 2.25049 15 2.25049H13.5C12.4884 2.25049 11.6328 2.91806 11.3495 3.83668M17.1505 3.83668C17.2152 4.04651 17.25 4.26943 17.25 4.50049V5.25049H11.25V4.50049C11.25 4.26943 11.2848 4.04651 11.3495 3.83668M6.75 7.50049H4.875C4.25368 7.50049 3.75 8.00417 3.75 8.62549V20.6255C3.75 21.2468 4.25368 21.7505 4.875 21.7505H14.625C15.2463 21.7505 15.75 21.2468 15.75 20.6255V16.5005C15.75 11.5299 11.7206 7.50049 6.75 7.50049Z" stroke="#F2F2F0" stroke-width="1.5" stroke-linecap="round" stroke-linejoin="round"/>
</svg>
