<svg width="24" height="24" viewBox="0 0 24 24" fill="none" xmlns="http://www.w3.org/2000/svg">
<path d="M9.74997 3.10457V8.81851C9.74997 9.41525 9.51292 9.98754 9.09097 10.4095L4.99998 14.5005M9.74997 3.10457C9.49883 3.12792 9.24881 3.15514 8.99997 3.18617M9.74997 3.10457C10.4907 3.03569 11.2412 3.00049 12 3.00049C12.7587 3.00049 13.5092 3.03569 14.25 3.10457M14.25 3.10457V8.81851C14.25 9.41525 14.487 9.98754 14.909 10.4095L19.8 15.3005M14.25 3.10457C14.5011 3.12792 14.7511 3.15514 15 3.18617M19.8 15.3005L18.2299 15.693C16.1456 16.2141 13.9216 15.9613 12 15.0005C10.0784 14.0397 7.85432 13.7869 5.77007 14.308L4.99998 14.5005M19.8 15.3005L21.2022 16.7027C22.4341 17.9346 21.8527 20.0207 20.1354 20.3139C17.4911 20.7653 14.773 21.0005 12 21.0005C9.22696 21.0005 6.50888 20.7653 3.86456 20.3139C2.14725 20.0207 1.56588 17.9346 2.79777 16.7027L4.99998 14.5005" stroke="#F2F2F0" stroke-width="1.5" stroke-linecap="round" stroke-linejoin="round"/>
</svg>
