<svg width="24" height="24" viewBox="0 0 24 24" fill="none" xmlns="http://www.w3.org/2000/svg">
<path d="M4.50073 11.9997C4.50073 16.1419 7.8586 19.4997 12.0007 19.4997C16.1429 19.4997 19.5007 16.1419 19.5007 11.9997M4.50073 11.9997C4.50073 7.85761 7.8586 4.49974 12.0007 4.49974C16.1429 4.49974 19.5007 7.85761 19.5007 11.9997M4.50073 11.9997L3.00073 11.9997M19.5007 11.9997L21.0007 11.9997M19.5007 11.9997L12.0007 11.9997M3.54329 15.0779L4.95283 14.5649M19.0482 9.43459L20.4578 8.92156M5.1062 17.7855L6.25527 16.8213M17.7459 7.17946L18.895 6.21528M7.50064 19.7947L8.25064 18.4957M15.7506 5.50533L16.5006 4.20629M10.4378 20.8637L10.6983 19.3865M13.303 4.61442L13.5635 3.13721M13.5635 20.8638L13.303 19.3866M10.6983 4.61446L10.4378 3.13725M16.5007 19.7946L15.7507 18.4956M7.50068 4.20613L12.0007 11.9997M18.8952 17.7848L17.7461 16.8207M6.25542 7.17884L5.10635 6.21466M20.458 15.0781L19.0485 14.5651M4.95308 9.43475L3.54354 8.92172M12.0007 11.9997L8.25073 18.4949" stroke="#F2F2F0" stroke-width="1.5" stroke-linecap="round" stroke-linejoin="round"/>
</svg>
