<svg width="24" height="24" viewBox="0 0 24 24" fill="none" xmlns="http://www.w3.org/2000/svg">
<path d="M9.59353 3.94054C9.68394 3.39808 10.1533 3.00049 10.7032 3.00049H13.2972C13.8471 3.00049 14.3165 3.39808 14.4069 3.94054L14.6204 5.22159C14.6827 5.59563 14.9327 5.9072 15.2645 6.09085C15.3386 6.13191 15.412 6.17432 15.4844 6.21806C15.8094 6.41433 16.2048 6.47535 16.5603 6.34215L17.7772 5.88626C18.2922 5.69333 18.8712 5.901 19.1461 6.37726L20.4431 8.6237C20.7181 9.09997 20.6084 9.70522 20.1839 10.0547L19.1795 10.8816C18.887 11.1224 18.742 11.4942 18.749 11.873C18.7498 11.9154 18.7502 11.9579 18.7502 12.0005C18.7502 12.0431 18.7498 12.0856 18.749 12.1279C18.742 12.5068 18.887 12.8786 19.1795 13.1194L20.1839 13.9462C20.6084 14.2957 20.7181 14.901 20.4431 15.3773L19.1461 17.6237C18.8712 18.1 18.2922 18.3076 17.7772 18.1147L16.5603 17.6588C16.2048 17.5256 15.8094 17.5866 15.4844 17.7829C15.412 17.8266 15.3386 17.8691 15.2645 17.9101C14.9327 18.0938 14.6827 18.4053 14.6204 18.7794L14.4069 20.0604C14.3165 20.6029 13.8471 21.0005 13.2972 21.0005H10.7032C10.1533 21.0005 9.68394 20.6029 9.59353 20.0604L9.38002 18.7794C9.31768 18.4053 9.06771 18.0938 8.73594 17.9101C8.66176 17.8691 8.58844 17.8267 8.51601 17.7829C8.19098 17.5866 7.79565 17.5256 7.44008 17.6588L6.22322 18.1147C5.70822 18.3076 5.12923 18.1 4.85426 17.6237L3.55728 15.3773C3.28231 14.901 3.39196 14.2958 3.81654 13.9462L4.82089 13.1194C5.1134 12.8786 5.2584 12.5068 5.25138 12.128C5.2506 12.0856 5.2502 12.0431 5.2502 12.0005C5.2502 11.9579 5.2506 11.9154 5.25138 11.873C5.2584 11.4942 5.1134 11.1224 4.82089 10.8816L3.81654 10.0548C3.39196 9.70523 3.28231 9.09998 3.55728 8.62372L4.85426 6.37728C5.12923 5.90101 5.70822 5.69335 6.22321 5.88628L7.44007 6.34216C7.79563 6.47536 8.19096 6.41434 8.516 6.21807C8.58843 6.17433 8.66176 6.13191 8.73594 6.09085C9.06771 5.9072 9.31768 5.59563 9.38002 5.22159L9.59353 3.94054Z" stroke="#F2F2F0" stroke-width="1.5" stroke-linecap="round" stroke-linejoin="round"/>
<path d="M15 12.0004C15 13.6573 13.6568 15.0004 12 15.0004C10.3431 15.0004 8.99997 13.6573 8.99997 12.0004C8.99997 10.3436 10.3431 9.00041 12 9.00041C13.6568 9.00041 15 10.3436 15 12.0004Z" stroke="#F2F2F0" stroke-width="1.5" stroke-linecap="round" stroke-linejoin="round"/>
</svg>
