<svg width="24" height="24" viewBox="0 0 24 24" fill="none" xmlns="http://www.w3.org/2000/svg">
<path d="M9 17.2505V18.2578C9 19.0535 8.68393 19.8166 8.12132 20.3792L7.5 21.0005H16.5L15.8787 20.3792C15.3161 19.8166 15 19.0535 15 18.2578V17.2505M21 5.25049V15.0005C21 16.2431 19.9926 17.2505 18.75 17.2505H5.25C4.00736 17.2505 3 16.2431 3 15.0005V5.25049M21 5.25049C21 4.00785 19.9926 3.00049 18.75 3.00049H5.25C4.00736 3.00049 3 4.00785 3 5.25049M21 5.25049V12.0005C21 13.2431 19.9926 14.2505 18.75 14.2505H5.25C4.00736 14.2505 3 13.2431 3 12.0005V5.25049" stroke="#F2F2F0" stroke-width="1.5" stroke-linecap="round" stroke-linejoin="round"/>
</svg>
