<svg width="24" height="24" viewBox="0 0 24 24" fill="none" xmlns="http://www.w3.org/2000/svg">
<path d="M8.25 3.00049V4.50049M4.5 8.25049H3M21 8.25049H19.5M4.5 12.0005H3M21 12.0005H19.5M4.5 15.7505H3M21 15.7505H19.5M8.25 19.5005V21.0005M12 3.00049V4.50049M12 19.5005V21.0005M15.75 3.00049V4.50049M15.75 19.5005V21.0005M6.75 19.5005H17.25C18.4926 19.5005 19.5 18.4931 19.5 17.2505V6.75049C19.5 5.50785 18.4926 4.50049 17.25 4.50049H6.75C5.50736 4.50049 4.5 5.50785 4.5 6.75049V17.2505C4.5 18.4931 5.50736 19.5005 6.75 19.5005ZM7.5 7.50049H16.5V16.5005H7.5V7.50049Z" stroke="#F2F2F0" stroke-width="1.5" stroke-linecap="round" stroke-linejoin="round"/>
</svg>
