<svg width="24" height="24" viewBox="0 0 24 24" fill="none" xmlns="http://www.w3.org/2000/svg">
<path d="M21 7.50049L18.75 6.18799M21 7.50049V9.75049M21 7.50049L18.75 8.81299M3 7.50049L5.25 6.18799M3 7.50049L5.25 8.81299M3 7.50049V9.75049M12 12.7505L14.25 11.438M12 12.7505L9.75 11.438M12 12.7505V15.0005M12 21.7505L14.25 20.438M12 21.7505V19.5005M12 21.7505L9.75 20.438M9.75 3.56299L12 2.25049L14.25 3.56299M21 14.2505V16.5005L18.75 17.813M5.25 17.813L3 16.5005V14.2505" stroke="#F2F2F0" stroke-width="1.5" stroke-linecap="round" stroke-linejoin="round"/>
</svg>
