<svg width="24" height="24" viewBox="0 0 24 24" fill="none" xmlns="http://www.w3.org/2000/svg">
<path d="M12 6.00049V18.0005M9 15.1823L9.87887 15.8415C11.0504 16.7202 12.9498 16.7202 14.1214 15.8415C15.2929 14.9628 15.2929 13.5382 14.1214 12.6595C13.5355 12.2201 12.7677 12.0004 11.9999 12.0005C11.275 12.0005 10.5502 11.7809 9.99709 11.3415C8.891 10.4628 8.891 9.0382 9.9971 8.15952C11.1032 7.28085 12.8965 7.28085 14.0026 8.15953L14.4175 8.48912M21 12.0005C21 16.9711 16.9706 21.0005 12 21.0005C7.02944 21.0005 3 16.9711 3 12.0005C3 7.02993 7.02944 3.00049 12 3.00049C16.9706 3.00049 21 7.02993 21 12.0005Z" stroke="#F2F2F0" stroke-width="1.5" stroke-linecap="round" stroke-linejoin="round"/>
</svg>
