<svg width="24" height="24" viewBox="0 0 24 24" fill="none" xmlns="http://www.w3.org/2000/svg">
<path d="M14.1213 7.62926C12.9497 6.45768 11.0503 6.45768 9.87868 7.62926C9.37424 8.1337 9.08699 8.77309 9.01694 9.43121C8.9944 9.643 9.01512 9.85631 9.04524 10.0671L9.5512 13.6089C9.68065 14.515 9.5307 15.4391 9.12135 16.2578L9 16.5005L10.5385 15.9877C11.0003 15.8337 11.4997 15.8337 11.9615 15.9877L12.6158 16.2058C13.182 16.3945 13.7999 16.3506 14.3336 16.0837L15 15.7505M8.25 12.0005H12M21 12.0005C21 16.9711 16.9706 21.0005 12 21.0005C7.02944 21.0005 3 16.9711 3 12.0005C3 7.02993 7.02944 3.00049 12 3.00049C16.9706 3.00049 21 7.02993 21 12.0005Z" stroke="#F2F2F0" stroke-width="1.5" stroke-linecap="round" stroke-linejoin="round"/>
</svg>
